<svg width="1441" height="925" viewBox="0 0 1441 925" fill="none" xmlns="http://www.w3.org/2000/svg">
<path d="M1440 346.073V517.204C1434.57 519.959 1428.92 522.474 1423.18 524.711C1417.25 527.059 1411.24 529.13 1405.25 530.942C1403.19 531.57 1401.14 532.143 1399.07 532.698C1399.07 532.698 1399.07 532.717 1399.05 532.698C1393.29 534.233 1387.45 535.527 1381.56 536.636C1372.38 538.393 1363.09 539.724 1353.91 540.852C1346.3 541.795 1338.59 542.627 1330.83 543.163C1327.35 543.403 1323.88 543.569 1320.38 543.662C1314.16 543.828 1307.94 543.717 1301.78 543.237C1298.36 542.959 1294.94 542.59 1291.55 542.109C1279.7 540.445 1267.95 537.635 1256.58 534.399C1250.63 532.717 1245.58 531.478 1239.36 531.533L1237.52 527.299L1234.64 520.68L1222.08 491.782C1221.79 488.399 1222.18 486.125 1224.9 483.592C1225.19 483.315 1225.48 483.074 1225.77 482.834C1227.53 481.447 1229.47 480.708 1231.91 480.541C1233.68 480.412 1235.87 480.486 1237.56 481.059C1238.96 481.54 1240.59 483.296 1242.11 483.444C1242.18 480.412 1245.47 478.748 1247.94 477.472C1250.44 476.16 1252.03 476.474 1254.64 476.012C1255.7 473.238 1252.88 470.077 1253.95 466.971C1254.26 466.083 1255.24 465.492 1255.49 464.826C1255.97 463.532 1255.6 461.997 1255.64 460.647C1255.78 455.822 1258.12 450.349 1263.63 449.332C1265.34 449 1267.14 449.073 1268.72 449.758C1269.98 450.331 1271.33 452.272 1272.83 451.939C1272.63 449.647 1276.09 448.297 1277.93 447.798C1281.22 446.929 1283.35 447.742 1286.27 448.944C1286.3 446.208 1288.95 442.177 1291.57 440.791C1292.49 440.291 1297.88 439.09 1300.84 439.33C1297.15 435.854 1294.64 428.532 1296.15 424.391C1297.84 424.299 1298.75 424.65 1298.88 422.93C1299.05 420.601 1295.87 418.567 1296.96 415.979C1297.79 414.037 1302.72 411.93 1304.68 411.467C1306.18 411.116 1307.6 411.19 1308.92 411.911C1309.82 412.373 1310.17 413.187 1311.26 413.168C1311.32 411.19 1309.79 409.156 1309.5 407.123C1309.09 404.201 1309.4 400.836 1310.88 398.229C1312.69 395.031 1316.77 392.886 1319.92 391.019C1323.67 388.8 1328.08 386.877 1332.48 386.452C1337.82 385.934 1345.17 385.657 1348.88 390.261C1350.28 392.017 1351.18 393.959 1352.68 395.697C1353.41 396.529 1354.93 397.934 1354.48 399.08C1350.72 396.621 1347.48 393.903 1342.52 395.197C1340.89 395.623 1333.94 398.747 1334.46 401.132C1335.63 401.151 1336.21 400.337 1337.22 399.893C1338.62 399.283 1339.78 399.302 1341.31 399.339C1344.52 399.394 1346.82 399.117 1349.76 400.263C1354.12 401.946 1356.6 404.146 1358.46 408.324C1357.86 405.865 1359.25 402.852 1361.84 402.112C1365.37 401.095 1366.35 403.536 1368.94 404.627C1372.01 403.147 1373.22 401.132 1377.04 401.058C1380.58 401.003 1383.07 402.408 1386.16 403.647C1384.19 399.32 1381.19 393.164 1382.25 388.079C1383.13 383.771 1388.43 386.008 1391.67 385.361C1389.39 380.443 1389.18 376.265 1394.84 373.991C1397.55 372.9 1396.86 371.975 1396.78 369.184C1396.63 363.434 1397.86 358.701 1402.41 354.633C1411.32 346.701 1424.89 341.266 1437.04 344.668C1438.12 344.963 1439.08 345.463 1440 346.073Z" fill="#E7DCC7"/>
<path d="M1173.97 486.439C1171.8 484.054 1167.51 481.003 1164.42 480.042C1160.1 478.71 1152.58 480.874 1152 485.755C1152.56 481.114 1141.57 479.783 1138.54 480.744C1133.84 482.223 1128.44 489.619 1129.06 494.352C1127.33 491.135 1123.93 489.175 1120.26 488.99C1117.57 488.861 1116.35 489.434 1114.29 490.377C1112.95 487.973 1112.97 484.202 1109.72 483.48C1107.86 483.055 1106.57 483.591 1105.19 484.368C1103.75 481.317 1102.12 477.194 1098.09 478.433C1094.77 479.45 1093.08 480.356 1092.23 483.462C1090.6 481.835 1089.6 479.284 1088.47 477.324C1086.66 474.162 1084.84 471.001 1082.71 468.042C1080.81 465.398 1078.37 462.311 1075.1 461.146C1070.21 459.371 1060.05 462.829 1059.71 467.728C1059.49 470.649 1060.42 473.959 1059.67 476.788C1055.71 474.218 1053.16 470.372 1047.65 471.389C1044.6 471.962 1045.27 474.181 1045.46 476.732C1043.56 471.001 1033.08 472.757 1029.97 476.14C1025.93 480.485 1023.03 486.901 1022.38 492.632C1021.94 496.681 1023.05 499.381 1024.53 502.986C1023.07 504.983 1019.46 503.467 1018 505.759C1017.08 507.202 1017.85 508.736 1017.41 510.252C1016.06 510.566 1014.72 508.311 1013.65 507.664C1011.21 506.203 1008.61 506.351 1006.02 507.109C1004.83 507.46 1001.36 509.716 1000.21 511.879C996.903 508.237 990.951 504.539 986.285 504.687C981.927 504.835 977.818 507.941 977.261 512.027C977.357 506.665 976.531 501.322 970.867 498.66C967.066 496.866 959.155 498.234 958.003 502.709C956.986 498.9 957.178 494.37 954.048 491.431C952.704 490.173 948.135 487.548 946.445 489.619C948.077 482.612 938.823 482.112 934.119 482.63C930.567 483.018 921.063 485.477 919.603 489.138C918.759 491.264 920.967 493.612 920.295 495.387C918.144 495.646 915.84 495.942 913.747 496.441C911.597 496.94 911.712 497.181 911.885 499.344C911.904 500.786 912.25 502.173 912.903 503.485C913.171 503.966 913.44 504.447 913.709 504.909C913.575 507.165 913.248 506.721 910.33 507.312C905.645 508.255 899.866 508.718 898.637 514.042C897.907 517.185 899.347 520.846 898.368 523.86C896.045 522.695 893.683 521.697 891.168 522.825C888.999 523.804 887.002 525.431 886.771 527.798C885.677 527.428 886.464 526.818 885.888 526.042C884.89 524.636 883.795 523.786 882.048 523.379C878.074 522.418 875.616 523.897 873.293 526.707C871.776 525.025 872.333 523.083 869.491 523.176C867.975 523.231 865.248 524.082 864.883 525.727C865.152 523.25 860.621 520.31 858.72 518.665C855.571 515.928 853.939 515.669 849.869 515.928C852.077 513.876 853.056 513.099 856.051 513.765C857.357 514.061 858.893 514.32 860.007 515.078C859.354 513.876 859.373 512.526 858.72 511.214C857.357 508.477 853.978 508.44 851.29 508.44C847.373 508.44 841.786 509.013 840.115 513.284C839.405 515.115 839.866 518.258 840.039 520.199C837.619 514.431 830.074 514.985 825.696 518.202C824.218 519.293 824.391 519.996 823.431 521.197C822.682 522.122 821.453 522.473 820.723 523.416C819.245 525.302 819.783 527.206 820.282 529.259C820.474 530.035 822.048 533.603 821.856 534.398C821.434 536.007 819.591 534.99 818.343 535.23C817.056 535.471 816.826 536.118 815.789 536.765C813.408 535.083 812.391 534.824 809.338 535.693C807.783 536.136 806.285 537.431 804.711 536.968C803.847 536.71 803.155 535.582 802.023 535.286C800.736 534.972 798.739 534.935 797.434 535.397C795.763 535.97 794.227 537.449 792.922 538.577C791.674 536.58 788.659 535.582 786.394 535.249C781.402 534.509 776.851 537.079 775.68 541.72C775.027 544.271 773.146 544.549 773.991 547.193C775.047 550.521 779.424 555.439 781.709 557.75C793.517 569.675 809.76 574.445 825.082 580.528C844.954 588.441 864.269 596.299 885.274 600.958C906.24 605.599 927.015 607.374 948.499 607.374C961.344 607.374 974.093 606.227 986.957 606.449C992.352 606.542 997.555 606.505 1002.84 605.377C1009.11 603.287 1015.32 600.976 1021.44 598.443C1024.99 597.057 1028.56 595.67 1032.12 594.265C1063.81 581.841 1097.2 573.558 1128.33 559.82C1132.86 557.75 1137.37 555.679 1141.9 553.608C1146.61 551.353 1151.02 548.672 1155.17 545.584C1159.18 541.184 1157.66 538.355 1154.9 533.363L1175.06 492.688C1177.69 492.651 1174.87 487.419 1173.97 486.439ZM997.44 513.062C998.266 513.192 999.072 513.173 999.879 513.118C999.86 513.58 1000.03 514.005 1000.38 514.394C999.533 513.968 997.018 513.229 997.44 513.062Z" fill="#E7DCC7"/>
<path d="M861.236 516.408C860.967 515.817 860.544 515.392 860.064 515.059C860.314 515.539 860.679 516.001 861.236 516.408Z" fill="#E7DCC7"/>
<path d="M675.821 523.693C675.686 521.308 675.417 519.478 674.649 517.241C673.939 515.17 672.672 512.693 670.963 511.047C669.273 509.42 666.873 508.496 665.049 507.017C662.649 505.057 659.654 504.114 656.659 504.798C653.299 505.556 649.478 505.371 646.099 506.61C642.182 508.033 639.84 510.973 640.435 514.671C639.897 512.193 634.598 511.084 632.198 512.027C629.568 513.044 626.381 517.093 626.957 519.57C625.709 515.688 617.107 513.062 612.691 513.192C610.541 513.247 607.718 513.617 605.664 514.283C604.493 514.431 603.629 514.93 603.072 515.762C603.072 516.446 602.707 516.852 601.958 516.963C600.096 515.447 600.249 512.212 598.982 510.289C597.465 508.015 594.797 505.556 592.665 503.707C590.246 501.618 587.232 500.398 583.795 500.009C581.28 499.732 580.934 500.453 579.149 501.1C577.209 498.863 577.805 496.071 575.347 493.871C572.333 491.172 567.091 488.935 562.771 488.287C559.68 487.825 556.934 488.177 554.88 490.247C553.171 491.948 553.325 491.856 550.579 491.56C540.384 490.414 534.912 497.532 532.569 505.149C532.185 506.369 531.379 519.349 528.249 518.091C527.539 514.412 522.374 511.583 518.304 510.955C515.213 510.474 510.912 510.714 507.936 511.657C506.477 512.119 504.998 513.469 503.597 513.746C501.657 514.135 502.137 513.765 500.736 512.526C499.046 511.029 497.203 510.64 494.726 510.936C491.865 511.269 485.222 513.099 484.109 515.54C483.417 514.671 483.437 512.896 483.245 511.842C482.784 509.235 482.265 507.756 480.557 505.611C476.429 500.435 468.249 496.275 462.009 501.821C461.241 502.505 460.358 503.67 459.072 503.578C458.265 502.062 459.168 499.806 458.784 498.16C458.169 495.646 456.48 494.019 454.541 492.189C452.352 490.136 451.661 487.918 450.355 485.385C448.493 481.816 441.273 479.357 436.761 479.265C434.054 479.209 429.043 479.727 428.198 482.334C426.95 479.542 425.971 478.47 422.189 478.488C418.944 478.507 416.083 480.041 414.912 482.741C414.125 484.571 414.912 487.141 412.934 488.472C411.705 489.304 410.592 488.787 409.229 488.99C407.328 489.267 406.579 489.988 405.369 491.375C403.929 493.039 403.027 495.036 402.221 496.977C401.933 497.698 401.683 500.25 400.397 500.508C399.648 500.656 398.342 499.658 397.517 499.51C396.134 499.251 394.521 499.787 393.12 499.584C390.278 499.177 389.126 498.327 385.997 499.177C382.733 500.065 380.352 502.117 378.24 504.243C379.065 498.604 376.032 494 372.096 489.859C370.176 487.844 367.584 485.015 364.358 484.922C361.286 484.83 358.31 485.2 355.526 486.235C356.678 482.981 358.003 480.91 362.169 480.892C363.917 480.873 367.392 481.077 368.755 482.279C368.87 480.171 366.701 478.377 364.857 477.102C363.763 476.344 362.496 475.715 361.497 474.828C360.288 473.737 359.904 472.905 358.118 472.443C353.049 471.13 346.253 471.537 343.085 475.419C341.184 477.767 340.761 479.82 340.819 482.574C340.838 483.813 341.107 485.237 340.685 486.402C339.629 485.81 339.014 484.775 337.805 484.331C336.269 483.776 333.696 484.127 332.006 484.146C326.995 484.22 318.701 488.14 319.718 493.113L308.198 559.488C323.424 567.678 338.88 575.147 356.102 579.955C371.597 584.281 387.571 586.111 403.853 586.333C416.064 586.5 428.16 585.945 440.333 585.409C456.134 584.706 471.936 584.706 487.737 584.17C507.936 583.467 528.23 581.766 548.237 579.16C579.245 575.129 608.429 565.644 636.691 554.496C647.75 550.132 658.598 545.085 669.907 541.184C672.441 540.315 675.437 540.111 677.875 539.187C677.625 533.955 676.089 528.852 675.821 523.693Z" fill="#E7DCC7"/>
<path d="M377.448 431.871C378.754 431.964 379.829 432.759 380.962 433.332C382.536 434.127 384.187 434.478 385.896 434.811C388.469 435.31 390.005 436.771 390.965 438.767C391.023 438.712 391.099 438.675 391.157 438.638C391.848 438.213 392.443 437.825 393.231 437.566C394.747 437.067 396.418 437.214 397.973 437.492C400.68 437.972 403.771 440.746 406.613 439.988C406.671 439.969 406.728 439.969 406.786 439.988C404.347 442.04 400.891 440.21 398.031 440.025C397.57 439.988 397.109 440.006 396.667 440.043C396.226 440.025 395.765 440.043 395.304 440.117C394.747 440.191 394.267 440.431 393.787 440.69C392.808 441.06 391.887 441.541 391.003 442.095C390.216 442.225 389.352 441.633 389.141 440.912C389.083 440.672 389.026 440.431 388.93 440.191C388.603 439.026 388.181 437.972 386.875 437.399C386.587 437.27 386.28 437.177 385.973 437.104C385.512 436.863 385.032 436.641 384.552 436.438C381.883 435.31 378.792 434.386 377.391 431.89C377.391 431.871 377.429 431.853 377.448 431.871Z" fill="#0A2F44"/>
<path d="M409.993 450.878C410.645 450.767 411.298 451.026 411.913 451.156C412.796 451.359 413.66 451.322 414.562 451.285C415.906 451.211 416.847 451.747 417.596 452.616C417.615 452.579 417.634 452.542 417.673 452.524C417.961 452.228 418.21 451.951 418.556 451.747C419.247 451.304 420.092 451.174 420.898 451.119C422.3 451.026 424.201 452.025 425.506 451.285C425.525 451.267 425.545 451.267 425.583 451.267C424.642 452.579 422.684 452.099 421.244 452.357C421.013 452.394 420.783 452.468 420.572 452.524C420.341 452.579 420.13 452.635 419.9 452.727C419.631 452.838 419.42 453.005 419.228 453.208C418.805 453.504 418.402 453.855 418.037 454.243C417.653 454.41 417.154 454.225 416.962 453.892C416.905 453.763 416.847 453.652 416.77 453.559C416.463 453.023 416.098 452.561 415.388 452.431C415.234 452.394 415.061 452.394 414.889 452.394C414.62 452.32 414.351 452.283 414.101 452.246C412.623 452.006 410.991 451.932 409.954 450.878C409.954 450.897 409.973 450.878 409.993 450.878Z" fill="#0A2F44"/>
<path d="M363.009 441.596C363.662 441.689 364.199 442.114 364.756 442.428C365.543 442.872 366.369 443.094 367.233 443.297C368.538 443.612 369.268 444.407 369.71 445.442C369.748 445.424 369.767 445.405 369.806 445.368C370.17 445.183 370.478 444.98 370.881 444.869C371.668 444.647 372.513 444.758 373.3 444.943C374.663 445.257 376.18 446.755 377.639 446.422C377.658 446.422 377.697 446.422 377.716 446.422C376.43 447.42 374.702 446.385 373.242 446.237C373.012 446.219 372.782 446.2 372.551 446.219C372.321 446.2 372.09 446.2 371.86 446.219C371.572 446.237 371.322 446.348 371.073 446.477C370.574 446.644 370.094 446.866 369.614 447.125C369.21 447.161 368.788 446.847 368.692 446.477C368.673 446.348 368.634 446.219 368.596 446.108C368.462 445.497 368.27 444.961 367.636 444.629C367.482 444.555 367.329 444.499 367.175 444.444C366.945 444.314 366.714 444.185 366.484 444.074C365.14 443.427 363.604 442.891 362.951 441.578C362.97 441.596 362.99 441.596 363.009 441.596Z" fill="#0A2F44"/>
<path d="M331.463 421.425C332.5 421.351 333.46 421.887 334.42 422.22C335.764 422.682 337.127 422.793 338.528 422.886C340.64 423.015 342.023 424.032 343.021 425.53C343.06 425.474 343.117 425.437 343.156 425.4C343.655 424.994 344.096 424.624 344.692 424.328C345.844 423.773 347.207 423.718 348.474 423.773C350.701 423.884 353.466 425.77 355.655 424.864C355.712 424.846 355.751 424.846 355.789 424.827C354.061 426.713 351.104 425.622 348.8 425.77C348.416 425.807 348.071 425.844 347.706 425.918C347.341 425.955 346.996 426.01 346.612 426.121C346.189 426.251 345.824 426.473 345.46 426.75C344.711 427.138 344.039 427.619 343.386 428.155C342.772 428.34 342.023 427.952 341.773 427.397C341.696 427.212 341.62 427.027 341.543 426.842C341.14 425.936 340.679 425.16 339.584 424.827C339.335 424.753 339.085 424.716 338.836 424.679C338.432 424.531 338.029 424.402 337.626 424.291C335.36 423.662 332.807 423.256 331.405 421.407C331.424 421.425 331.444 421.425 331.463 421.425Z" fill="#0A2F44"/>
<path d="M359.553 433.239C360.052 433.073 360.609 433.221 361.127 433.276C361.857 433.332 362.529 433.221 363.239 433.092C364.295 432.888 365.121 433.221 365.812 433.831C365.831 433.794 365.851 433.776 365.87 433.757C366.062 433.498 366.235 433.258 366.484 433.036C366.983 432.611 367.636 432.426 368.27 432.297C369.383 432.075 371.015 432.666 371.975 431.964C371.995 431.945 372.014 431.945 372.052 431.927C371.457 433.073 369.825 432.907 368.711 433.258C368.539 433.313 368.366 433.387 368.193 433.461C368.02 433.517 367.847 433.591 367.694 433.702C367.502 433.813 367.348 433.979 367.195 434.145C366.887 434.423 366.599 434.756 366.35 435.107C366.081 435.273 365.659 435.181 365.447 434.94C365.39 434.848 365.332 434.774 365.255 434.7C364.929 434.312 364.603 433.961 364.027 433.942C363.892 433.942 363.758 433.942 363.623 433.961C363.393 433.924 363.182 433.924 362.971 433.924C361.761 433.887 360.455 433.997 359.515 433.258C359.534 433.239 359.534 433.239 359.553 433.239Z" fill="#0A2F44"/>
<path d="M321.038 430.688C321.576 430.688 322.056 430.965 322.536 431.169C323.208 431.446 323.899 431.52 324.61 431.612C325.685 431.723 326.376 432.278 326.856 433.073C326.875 433.055 326.894 433.036 326.914 432.999C327.182 432.814 327.413 432.611 327.72 432.5C328.334 432.241 329.006 432.241 329.659 432.315C330.792 432.426 332.155 433.461 333.288 433.055C333.307 433.055 333.326 433.055 333.346 433.055C332.424 433.979 330.946 433.332 329.755 433.35C329.563 433.35 329.371 433.369 329.198 433.406C329.026 433.406 328.834 433.443 328.642 433.48C328.411 433.535 328.219 433.646 328.046 433.776C327.662 433.96 327.298 434.182 326.952 434.441C326.626 434.515 326.261 434.312 326.146 434.016C326.126 433.924 326.088 433.813 326.05 433.72C325.877 433.258 325.666 432.833 325.109 432.648C324.994 432.611 324.859 432.574 324.725 432.555C324.533 432.463 324.322 432.389 324.11 432.333C322.978 431.945 321.672 431.686 321 430.706C321 430.688 321.019 430.688 321.038 430.688Z" fill="#0A2F44"/>
<path d="M454.743 430.06C455.684 430.041 456.51 430.577 457.355 430.892C458.526 431.354 459.735 431.52 460.983 431.668C462.865 431.89 464.036 432.833 464.843 434.201C464.881 434.164 464.939 434.127 464.977 434.109C465.438 433.776 465.86 433.443 466.379 433.221C467.435 432.778 468.644 432.796 469.777 432.907C471.755 433.092 474.135 434.904 476.113 434.201C476.151 434.183 476.19 434.183 476.247 434.183C474.635 435.791 472.043 434.663 469.988 434.7C469.643 434.7 469.335 434.737 469.009 434.774C468.702 434.793 468.375 434.83 468.03 434.904C467.646 434.996 467.3 435.181 466.974 435.403C466.302 435.717 465.668 436.106 465.073 436.568C464.516 436.697 463.863 436.327 463.652 435.828C463.614 435.662 463.537 435.495 463.46 435.329C463.153 434.497 462.788 433.794 461.828 433.443C461.617 433.369 461.387 433.314 461.156 433.277C460.811 433.11 460.465 432.999 460.1 432.87C458.103 432.204 455.857 431.724 454.705 430.023C454.705 430.06 454.724 430.06 454.743 430.06Z" fill="#0A2F44"/>
<path d="M479.185 441.837C479.646 441.708 480.126 441.855 480.586 441.929C481.239 442.022 481.854 441.948 482.487 441.874C483.447 441.745 484.158 442.077 484.734 442.65C484.734 442.632 484.772 442.595 484.772 442.577C484.964 442.355 485.118 442.151 485.348 441.966C485.809 441.615 486.404 441.467 486.98 441.393C487.979 441.245 489.399 441.855 490.283 441.264C490.302 441.245 490.321 441.245 490.34 441.245C489.764 442.244 488.324 442.003 487.306 442.281C487.153 442.336 486.98 442.373 486.846 442.447C486.692 442.503 486.539 442.558 486.385 442.632C486.212 442.724 486.058 442.854 485.924 443.002C485.636 443.242 485.367 443.519 485.137 443.815C484.887 443.945 484.503 443.834 484.331 443.612C484.292 443.538 484.234 443.445 484.177 443.39C483.908 443.02 483.639 442.706 483.121 442.65C483.006 442.65 482.891 442.65 482.775 442.65C482.583 442.614 482.391 442.595 482.199 442.577C481.124 442.503 479.953 442.521 479.146 441.837C479.166 441.837 479.166 441.837 479.185 441.837Z" fill="#0A2F44"/>
<path d="M445.009 437.825C445.47 437.844 445.892 438.121 446.314 438.324C446.89 438.602 447.524 438.713 448.138 438.805C449.098 438.953 449.674 439.471 450.058 440.192C450.078 440.173 450.097 440.155 450.116 440.155C450.366 439.988 450.577 439.84 450.865 439.729C451.422 439.526 452.036 439.563 452.612 439.656C453.61 439.803 454.782 440.783 455.818 440.469C455.838 440.469 455.857 440.469 455.876 440.469C455.012 441.246 453.706 440.617 452.65 440.58C452.478 440.58 452.305 440.58 452.151 440.598C451.998 440.598 451.825 440.617 451.652 440.654C451.46 440.691 451.268 440.783 451.095 440.876C450.75 441.024 450.404 441.209 450.078 441.412C449.79 441.467 449.482 441.264 449.386 441.005C449.367 440.913 449.348 440.82 449.31 440.728C449.175 440.303 449.002 439.933 448.522 439.729C448.407 439.692 448.292 439.656 448.177 439.619C448.004 439.526 447.831 439.452 447.639 439.397C446.641 439.008 445.508 438.713 444.951 437.807C444.99 437.844 444.99 437.825 445.009 437.825Z" fill="#0A2F44"/>
<path d="M421.221 425.16C421.97 425.068 422.68 425.382 423.391 425.567C424.37 425.826 425.349 425.826 426.367 425.808C427.883 425.789 428.939 426.436 429.746 427.453C429.784 427.416 429.803 427.379 429.842 427.361C430.187 427.046 430.475 426.75 430.879 426.51C431.666 426.048 432.645 425.937 433.547 425.9C435.141 425.863 437.234 427.046 438.751 426.288C438.77 426.27 438.808 426.27 438.847 426.27C437.733 427.712 435.544 427.083 433.893 427.324C433.624 427.361 433.375 427.416 433.125 427.49C432.875 427.527 432.626 427.601 432.357 427.693C432.05 427.804 431.8 427.989 431.57 428.211C431.071 428.525 430.61 428.914 430.168 429.339C429.746 429.505 429.189 429.265 428.959 428.895C428.901 428.766 428.843 428.636 428.767 428.507C428.421 427.878 428.056 427.342 427.25 427.176C427.058 427.139 426.885 427.12 426.693 427.12C426.405 427.028 426.098 426.972 425.81 426.898C424.159 426.584 422.296 426.418 421.183 425.197C421.183 425.179 421.202 425.16 421.221 425.16Z" fill="#0A2F44"/>
<path d="M442.034 432.038C442.379 431.89 442.782 431.964 443.166 431.964C443.685 431.964 444.184 431.835 444.664 431.724C445.413 431.521 446.027 431.706 446.546 432.112C446.565 432.094 446.565 432.075 446.584 432.057C446.699 431.872 446.814 431.687 446.987 431.521C447.314 431.188 447.774 431.021 448.216 430.892C449.003 430.67 450.194 431.003 450.846 430.43C450.866 430.43 450.885 430.411 450.885 430.411C450.52 431.262 449.349 431.225 448.581 431.539C448.446 431.595 448.331 431.65 448.216 431.724C448.101 431.78 447.966 431.835 447.87 431.909C447.736 432.001 447.64 432.131 447.544 432.26C447.333 432.482 447.16 432.722 447.006 432.981C446.814 433.111 446.507 433.074 446.354 432.907C446.315 432.852 446.258 432.796 446.2 432.741C445.95 432.464 445.682 432.26 445.259 432.279C445.163 432.279 445.067 432.297 444.99 432.316C444.818 432.316 444.664 432.316 444.51 432.316C443.646 432.353 442.706 432.519 441.995 432.038C442.014 432.057 442.014 432.038 442.034 432.038Z" fill="#0A2F44"/>
<path d="M414.309 432.371C414.693 432.334 415.057 432.519 415.403 432.63C415.902 432.778 416.401 432.815 416.92 432.833C417.688 432.852 418.206 433.203 418.59 433.739C418.609 433.721 418.629 433.702 418.648 433.702C418.821 433.554 418.974 433.406 419.205 433.295C419.627 433.074 420.126 433.055 420.587 433.055C421.393 433.074 422.449 433.739 423.237 433.369C423.256 433.369 423.275 433.369 423.294 433.351C422.68 434.053 421.585 433.702 420.741 433.776C420.606 433.795 420.472 433.813 420.357 433.85C420.222 433.869 420.088 433.887 419.953 433.943C419.8 433.998 419.665 434.072 419.531 434.183C419.262 434.331 419.032 434.516 418.782 434.719C418.571 434.793 418.283 434.664 418.187 434.46C418.149 434.386 418.129 434.331 418.091 434.257C417.937 433.924 417.765 433.647 417.361 433.536C417.265 433.517 417.189 433.499 417.073 433.499C416.92 433.443 416.785 433.406 416.632 433.369C415.787 433.166 414.846 433.037 414.309 432.389V432.371Z" fill="#0A2F44"/>
</svg>
