<svg width="1441" height="925" viewBox="0 0 1441 925" fill="none" xmlns="http://www.w3.org/2000/svg">
<path d="M1440 655.5V737.941C1429.61 740.64 1419.42 743.931 1409.03 746.575C1407.86 746.871 1406.69 747.148 1405.52 747.407C1400.22 748.572 1394.86 749.367 1389.47 749.903C1389.45 749.922 1389.41 749.922 1389.39 749.922C1387.78 750.069 1386.16 750.217 1384.53 750.328C1381.79 750.532 1379.06 750.698 1376.31 750.809C1376.31 750.809 1376.31 750.809 1376.29 750.809C1376.1 750.809 1375.91 750.809 1375.74 750.828C1371.42 750.994 1367.12 751.086 1362.82 751.142C1359.94 751.179 1357.06 751.216 1354.18 751.271C1354.18 751.271 1354.18 751.271 1354.16 751.271C1353.6 751.271 1353.04 751.271 1352.47 751.29C1352.24 751.29 1352.01 751.29 1351.76 751.308C1346.15 751.364 1340.51 751.438 1334.88 751.475C1333.86 751.493 1332.86 751.493 1331.87 751.493C1331.33 751.512 1330.79 751.512 1330.25 751.512H1329.45C1329.43 751.493 1329.43 751.512 1329.43 751.512C1328.2 751.512 1326.99 751.53 1325.78 751.512C1324.13 751.53 1322.48 751.53 1320.83 751.53H1320.81C1319.73 751.53 1318.66 751.53 1317.58 751.512H1317.31C1312.13 751.493 1306.96 751.438 1301.8 751.327C1300.88 751.308 1299.94 751.271 1299.01 751.253C1293.41 751.105 1287.82 750.901 1282.23 750.624C1282.21 750.624 1282.21 750.624 1282.21 750.624C1278.59 750.439 1274.96 750.217 1271.33 749.959C1270.06 749.866 1268.81 749.792 1267.55 749.718H1267.53C1266.95 749.663 1266.36 749.626 1265.76 749.607C1260.08 749.274 1254.39 749.053 1248.69 748.942C1248.31 748.923 1247.92 748.905 1247.54 748.905C1246.5 748.886 1245.48 748.868 1244.47 748.849C1240.4 748.775 1236.31 748.757 1232.24 748.738C1230.62 748.738 1228.99 748.738 1227.38 748.757C1224.67 748.738 1221.98 748.757 1219.3 748.794C1219.1 748.775 1218.91 748.775 1218.72 748.794C1212.88 748.812 1207.05 748.868 1201.23 748.886C1198.79 748.923 1196.33 748.923 1193.89 748.923C1193.09 748.923 1192.26 748.923 1191.46 748.905C1190.9 748.923 1190.32 748.905 1189.77 748.905C1184.51 748.868 1179.23 748.794 1173.95 748.738C1172.72 748.72 1171.49 748.701 1170.26 748.701C1167.51 748.683 1164.79 748.683 1162.08 748.701C1160.52 748.701 1158.99 748.72 1157.45 748.757C1157.45 748.757 1157.45 748.775 1157.43 748.757C1154.23 748.812 1151.04 748.905 1147.85 749.071C1146.74 749.127 1145.64 749.182 1144.53 749.256C1143.44 749.311 1142.32 749.367 1141.23 749.441C1139.52 749.533 1137.83 749.644 1136.12 749.755C1135.68 749.792 1135.22 749.811 1134.78 749.848C1134.34 749.866 1133.88 749.903 1133.43 749.94C1125.18 750.495 1116.96 751.179 1108.76 751.955H1108.74C1104.84 752.325 1100.97 752.713 1097.07 753.139C1095 753.342 1092.92 753.564 1090.87 753.823C1089.64 753.934 1088.41 754.082 1087.18 754.229C1086.11 754.34 1085.03 754.47 1083.96 754.599H1083.94C1081.92 754.84 1079.88 755.08 1077.87 755.339H1077.81C1077.31 755.394 1076.83 755.468 1076.33 755.524C1075.07 755.69 1073.8 755.838 1072.53 756.004C1071.8 756.097 1071.09 756.189 1070.38 756.282C1069.84 756.356 1069.31 756.411 1068.79 756.485C1067.77 756.614 1066.77 756.744 1065.77 756.892C1064.95 757.003 1064.12 757.114 1063.3 757.225C1062.82 757.28 1062.32 757.354 1061.84 757.409C1052.1 758.741 1042.37 760.183 1032.61 761.699C1031.64 761.847 1030.66 762.013 1029.68 762.161H1029.66C1027.12 762.568 1024.59 762.975 1022.05 763.381C1017.85 764.065 1013.64 764.75 1009.44 765.434H1009.42C1006.39 765.933 1003.39 766.413 1000.36 766.913H1000.34C998.055 767.264 995.77 767.634 993.504 768.004C992.679 768.133 991.872 768.262 991.066 768.392H991.046C976.877 770.647 962.746 772.848 948.595 774.918C914.976 779.818 881.319 783.941 847.277 786.27C840.711 786.733 834.106 787.102 827.501 787.417C817.075 787.916 806.631 788.286 796.167 788.581H796.147C782.342 788.97 768.538 789.192 754.714 789.266C746.227 789.34 737.722 789.34 729.235 789.303C724.608 789.303 720 789.303 715.373 789.247C709.901 789.21 704.429 789.136 698.976 789.062C690.413 788.951 681.85 788.803 673.306 788.637C673.306 788.637 673.306 788.637 673.286 788.637C656.141 788.286 639.014 787.823 621.926 787.343C617.568 787.213 613.21 787.084 608.87 786.955C602.707 786.77 596.544 786.603 590.381 786.4C556.09 785.346 521.606 783.941 487.334 781.02H487.315C480.019 780.409 472.723 779.707 465.466 778.93C452.563 777.581 439.699 775.972 426.912 774.031C411.706 771.738 396.595 769.242 381.504 766.82H381.485C370.042 764.971 358.618 763.159 347.155 761.495C337.421 760.09 327.667 758.778 317.875 757.631C317.357 757.557 316.819 757.502 316.301 757.446C314.669 757.262 313.056 757.077 311.424 756.892C300.077 755.653 288.73 754.377 277.382 753.046C273.792 752.639 270.221 752.214 266.65 751.77C263.846 751.456 261.043 751.123 258.24 750.772C257.069 750.643 255.898 750.495 254.726 750.347C253.997 750.254 253.267 750.18 252.538 750.069C252.154 750.032 251.789 749.995 251.405 749.94C249.984 749.774 248.544 749.589 247.123 749.422C247.027 749.404 246.931 749.385 246.835 749.385C246.336 749.33 245.856 749.256 245.357 749.2C243.398 748.96 241.44 748.72 239.482 748.461H239.424C237.946 748.276 236.467 748.091 234.989 747.888C234.97 747.888 234.97 747.888 234.97 747.888C234.662 747.851 234.355 747.814 234.048 747.777C232.838 747.629 231.629 747.463 230.419 747.315C228.768 747.111 227.117 746.889 225.485 746.686C224.275 746.52 223.066 746.372 221.875 746.224C221.645 746.187 221.414 746.15 221.184 746.131C221.03 746.094 220.896 746.076 220.742 746.057H220.723C219.533 745.909 218.342 745.743 217.171 745.595C215.866 745.429 214.579 745.244 213.293 745.077C212.678 745.004 212.064 744.911 211.45 744.837C211.334 744.819 211.238 744.8 211.123 744.8C210.95 744.763 210.797 744.745 210.624 744.726C209.76 744.615 208.915 744.504 208.051 744.375C206.362 744.153 204.653 743.913 202.963 743.672C201.158 743.432 199.354 743.192 197.568 742.933C196.243 742.748 194.918 742.563 193.594 742.378C192.96 742.286 192.346 742.193 191.712 742.119C190.387 741.916 189.043 741.731 187.718 741.546C187.104 741.454 186.47 741.38 185.856 741.287C184.858 741.139 183.859 741.01 182.861 740.881C181.632 740.696 180.403 740.511 179.174 740.344H179.155C177.984 740.178 176.851 740.03 175.68 739.864H175.661C175.488 739.845 175.296 739.808 175.123 739.79C174.758 739.734 174.394 739.697 174.029 739.642H174.01C173.779 739.605 173.568 739.586 173.338 739.549C172.531 739.438 171.725 739.327 170.918 739.235C168.461 738.884 166.003 738.569 163.546 738.255C163.296 738.218 163.046 738.181 162.797 738.163C161.702 738.015 160.608 737.885 159.514 737.756C158.573 737.627 157.613 737.516 156.672 737.405C155.213 737.22 153.754 737.053 152.294 736.887C149.395 736.536 146.477 736.221 143.578 735.907C140.698 735.611 137.837 735.334 134.957 735.075C133.402 734.927 131.846 734.798 130.272 734.687C130.253 734.668 130.214 734.668 130.176 734.668C129.542 734.613 128.89 734.557 128.256 734.52C127.91 734.483 127.546 734.465 127.2 734.428C125.395 734.299 123.571 734.169 121.766 734.058C119.923 733.947 118.061 733.818 116.198 733.707H116.179C115.949 733.688 115.718 733.688 115.469 733.67C107.002 733.152 98.4576 732.653 89.856 732.246C89.7024 732.228 89.5488 732.228 89.376 732.228C87.072 732.098 84.768 732.006 82.464 731.914C81.7344 731.877 80.9856 731.84 80.2368 731.821C73.1904 731.525 66.1056 731.322 59.0208 731.211C58.176 731.211 57.3312 731.192 56.4864 731.192H56.4672C48.4608 731.082 40.4544 731.119 32.4864 731.359C31.3536 731.396 30.24 731.433 29.1072 731.47C28.5888 731.488 28.0896 731.507 27.5712 731.525H27.552C25.0176 731.618 22.5024 731.729 19.968 731.877C18.2976 731.969 16.6272 732.061 14.9568 732.191C9.9456 732.505 4.9536 732.93 0 733.43V481.539C0.4992 481.705 1.0176 481.89 1.5168 482.075C6.3168 483.887 10.4832 486.623 15.168 488.528C21.024 490.913 26.7648 492.281 32.5056 495.202C35.5584 496.737 38.5728 498.271 41.568 499.75C49.536 503.67 57.504 507.257 66.3936 509.79C68.544 510.4 70.6944 510.992 72.8448 511.565C74.3616 511.953 75.8592 512.341 77.376 512.73C83.04 514.172 88.704 515.54 94.3296 517.037C99.0528 518.295 103.738 519.829 108.518 520.902C110.746 521.438 112.992 521.863 115.258 522.122C116.41 522.251 117.562 522.344 118.733 522.381C123.648 522.529 129.485 522.972 134.669 522.603C135.744 522.566 136.781 522.455 137.779 522.307C142.81 521.604 149.242 518.017 153.562 516.113C162.432 512.286 171.648 509.475 180.518 505.704C183.686 504.354 186.758 502.875 189.811 501.377C189.83 501.377 189.85 501.359 189.869 501.359C192.288 500.157 194.707 498.937 197.126 497.754C197.568 497.532 198.01 497.31 198.451 497.107C199.258 496.718 200.064 496.33 200.87 495.942C201.638 495.59 202.406 495.239 203.174 494.888C204.058 494.481 204.96 494.093 205.862 493.705C206.861 493.279 207.859 492.854 208.877 492.466C210.106 491.985 211.142 491.449 212.122 490.987C214.522 489.803 216.538 488.824 219.84 488.916C219.917 488.898 220.013 488.916 220.09 488.916C221.875 489.008 223.776 489.323 225.715 489.748C231.418 491.061 237.504 493.557 242.285 495.461C246.931 497.476 251.462 499.676 255.898 502.08C257.434 502.894 258.95 503.726 260.467 504.595C261.946 505.223 263.424 505.778 264.922 506.332C268.627 507.701 272.41 508.865 276.23 509.882C276.864 510.067 277.498 510.234 278.15 510.4C288.71 513.062 296.198 521.53 305.798 526.578C307.162 527.299 308.563 528.001 309.946 528.685C309.946 528.685 309.965 528.685 309.965 528.704L309.984 528.722C310.003 528.722 310.003 528.741 310.022 528.741C311.098 529.24 312.134 529.758 313.229 530.257C317.28 532.161 321.389 533.918 325.555 535.582C336.576 539.982 347.885 543.698 359.04 547.636C365.472 549.929 371.27 552.037 377.338 553.608C381.696 554.754 386.189 555.623 391.162 556.067C395.27 556.455 399.322 556.788 403.334 557.176C412.339 558.045 421.133 559.155 430.08 561.706C441.504 564.979 452.352 568.27 462.106 575.037C464.045 576.405 465.6 577.81 467.866 578.66C475.507 581.619 484.934 582.099 493.094 583.856H493.133C493.286 583.874 493.44 583.911 493.594 583.948C493.786 583.985 493.958 584.022 494.131 584.059C502.464 585.982 510.739 588.127 518.976 590.419C526.003 592.342 532.992 594.376 539.962 596.447C542.822 597.297 545.664 598.148 548.506 598.998C559.949 602.4 571.046 606.209 581.683 610.942C587.962 613.734 594.086 616.895 600.019 620.482C600.922 621.037 601.805 621.591 602.688 622.146C611.578 627.84 624.134 632.241 634.464 634.607C641.05 636.123 645.984 638.342 652.646 638.601C657.658 638.823 662.611 640.191 667.642 640.598C673.363 641.06 679.258 641.208 685.171 641.134C691.603 641.06 698.016 640.746 704.218 640.302C708 640.043 711.763 639.821 715.507 639.655C719.174 639.47 722.842 639.322 726.509 639.211C735.802 638.934 745.075 638.823 754.407 638.749C756.192 638.712 757.997 638.693 759.782 638.693H759.802C760.109 638.675 760.435 638.675 760.742 638.675C761.434 638.675 762.106 638.693 762.758 638.749C768.538 639.174 773.414 641.522 779.482 640.635C780.807 640.45 782.131 640.228 783.456 639.932C784.512 639.71 785.587 639.451 786.643 639.174C787.238 639.026 787.834 638.86 788.429 638.693C788.947 638.545 789.466 638.398 790.003 638.231C790.848 637.972 791.712 637.713 792.557 637.418C795.744 636.364 798.912 635.143 802.003 633.812C802.022 633.831 802.022 633.812 802.022 633.812C806.15 632.074 810.125 630.17 813.85 628.321C815.52 627.489 817.21 626.62 818.861 625.751C821.069 624.605 823.258 623.44 825.447 622.257C827.635 621.074 829.824 619.89 831.994 618.688C835.066 616.988 838.138 615.287 841.21 613.567C843.61 612.254 845.99 610.923 848.39 609.629C852.384 607.447 856.397 605.303 860.448 603.269C861.792 602.585 863.155 601.901 864.518 601.235C866.093 600.459 867.686 599.701 869.28 598.961C870.048 598.61 870.816 598.258 871.584 597.907C871.776 597.796 871.968 597.722 872.179 597.63C872.179 597.63 872.179 597.63 872.198 597.63C872.333 597.556 872.486 597.5 872.621 597.445C873.446 597.075 874.272 596.705 875.098 596.354C876.557 595.725 878.016 595.115 879.495 594.524C880.973 593.914 882.451 593.34 883.949 592.786C890.227 590.456 896.851 588.977 903.264 587.017C905.76 586.278 908.218 585.427 910.618 584.429C913.421 583.283 914.592 582.802 917.53 582.506C921.063 582.173 924.845 582.654 928.397 582.617C935.693 582.561 942.893 581.6 950.15 580.953H950.17C953.357 580.657 956.525 580.417 959.75 580.343C963.014 580.269 966.259 580.213 969.523 580.158C982.81 579.918 996.096 579.788 1009.38 579.455C1016.29 579.289 1023.21 579.067 1030.1 578.734C1043.77 578.087 1057.42 577.07 1071.03 575.332C1074.74 574.87 1078.44 574.371 1082.13 573.835H1082.15C1087.66 573.058 1093.19 572.226 1098.68 571.394H1098.7C1102.85 570.766 1107 570.137 1111.14 569.527C1112.1 569.379 1113.06 569.25 1114.02 569.102C1117.84 568.529 1121.05 568.362 1124.1 568.455C1128.19 568.547 1132.05 569.139 1136.87 569.878C1139.87 570.34 1142.44 570.414 1144.93 569.971H1144.95C1145.38 569.897 1145.8 569.804 1146.22 569.712C1146.36 569.675 1146.49 569.638 1146.62 569.601C1146.74 569.582 1146.85 569.545 1146.97 569.508C1147.26 569.434 1147.55 569.361 1147.81 569.268C1147.99 569.213 1148.16 569.157 1148.33 569.083C1148.66 568.972 1148.99 568.861 1149.31 568.713C1149.56 568.621 1149.81 568.529 1150.06 568.399C1150.31 568.307 1150.56 568.196 1150.81 568.085C1180.09 554.551 1207.22 539.205 1233.85 521.234C1234.12 521.068 1234.37 520.883 1234.64 520.698C1238.17 518.295 1242.03 515.373 1246 512.656C1250.19 509.79 1254.51 507.164 1258.69 505.519C1265.59 502.857 1275.09 501.932 1282.48 500.231C1289.91 498.53 1297.32 496.996 1304.76 495.59C1320.98 492.484 1337.2 489.859 1353.56 486.827C1355.25 486.513 1356.96 486.217 1358.67 485.958H1358.69C1366.2 484.756 1373.86 483.943 1381.48 482.963C1381.5 482.963 1381.52 482.963 1381.54 482.944C1383.03 482.741 1384.53 482.556 1386.03 482.334H1386.05C1397.24 480.726 1408.22 478.507 1418.46 473.903C1425.58 470.723 1432.61 468.93 1440 466.951V651.506C1440.52 652.56 1440.36 654.02 1440 655.5Z" fill="#BFD8AF"/>
<path d="M608.756 671.159C609.005 668.275 603.879 665.557 602.151 664.041C596.468 659.123 590.458 654.353 584.141 650.193C579.168 646.921 573.312 645.09 568.493 642.151C567.591 640.912 566.439 639.95 565.018 639.266C562.791 638.36 560.583 637.454 558.375 636.493C554.784 634.829 551.232 633.646 547.469 632.333C539.117 629.43 531.591 624.383 523.7 620.537C516.48 617.024 509.396 613.715 502.868 609.074C498.452 605.931 493.748 603.047 489.236 600.107C486.26 598.166 483.648 595.596 480.576 593.821C476.986 591.732 471.36 590.715 469.268 587.036C469.632 589.495 472.973 591.732 474.624 593.581C478.56 598.018 482.036 602.77 486.413 606.837C494.42 614.27 501.869 621.776 507.668 631.02C511.469 637.066 513.428 644.055 516.576 650.397C518.823 654.945 520.455 660.565 523.162 664.781C526.58 670.142 533.338 672.158 537.485 676.872C541.767 681.735 542.919 686.413 545.684 692.015C547.028 694.714 548.89 699.54 550.848 701.573C552.768 703.552 551.424 702.516 553.613 702.868C556.032 701.518 558.663 700.649 561.466 700.261C566.439 699.558 571.412 698.855 576.384 698.19C592.474 695.842 608.314 694.843 624.576 694.714L608.756 671.159Z" fill="#99BC85"/>
<path d="M518.497 696.138C515.175 692.071 512.199 688.909 509.396 684.361C503.713 675.172 497.415 665.613 490.388 657.33C479.329 644.296 467.674 632.223 455.578 620.076C451.162 615.638 447.514 610.166 442.868 606.006C438.663 602.234 432.577 602.437 427.201 601.494C421.882 600.551 417.639 598.758 413.012 596.281C410.42 594.894 407.617 594.265 404.986 592.879C401.665 591.141 398.689 588.941 395.578 586.888C392.545 584.873 389.492 583.634 386.919 581.046C385.671 579.789 384.462 577.515 382.983 576.997C382.407 580.01 380.334 582.285 379.7 585.206C378.855 589.181 380.852 592.86 382.618 596.281C384.078 599.072 385.23 602.123 387.207 604.638C389.166 607.133 391.7 608.982 393.39 611.682C396.98 617.432 397.959 624.513 398.478 631.058C398.977 637.215 400.417 643.538 402.721 649.306C404.756 654.354 408.231 658.088 410.593 662.877C412.858 667.481 415.086 671.031 418.35 675.191C423.361 681.588 427.489 689.131 431.482 696.12C433.383 699.466 436.858 704.495 437.358 708.637L512.238 704.477C515.732 703.46 520.186 703.386 523.374 701.722C520.839 701.038 520.014 698.006 518.497 696.138Z" fill="#99BC85"/>
<path d="M1099.56 579.659C1097.43 580.084 1096.95 582.414 1095.63 583.782C1092.81 586.703 1089.77 587.794 1086.09 589.661C1079.94 592.786 1074.41 597.427 1070.96 603.232C1067.15 609.648 1060.67 612.994 1056.88 619.539C1054.19 624.161 1051.16 628.617 1049.72 633.776C1048.45 638.342 1046.38 642.687 1044.31 646.976C1040.14 655.574 1037.16 664.874 1030.75 672.251C1024.51 679.461 1017.93 686.801 1010.46 692.829C1007.17 695.472 1002.51 699.466 998.073 697.099C1000.7 682.05 1009.79 669.292 1013.78 654.779C1014.8 651.099 1016.81 647.531 1017.47 643.759C1018 640.69 1017.81 637.64 1018.54 634.589C1020.29 627.249 1022.13 620.427 1022.05 612.791C1021.98 605.728 1022.76 598.296 1022.07 591.251C1021.9 589.513 1020.94 585.095 1019.31 583.967C1017.08 582.432 1010.19 585.464 1007.96 586.185C1001.36 588.312 991.718 590.53 986.323 595.171C980.947 599.812 978.259 608.28 974.956 614.288C971.289 620.963 966.7 627.157 962.88 633.72C959.078 640.247 955.929 646.847 951.532 653.096C944.812 662.636 937.305 671.16 927.705 678.093C924.479 680.423 921.331 682.882 918.105 685.211C916.415 686.431 914.86 687.892 912.537 687.8L922.617 708.599C924.134 712.963 924.441 716.069 929.26 717.049C932.563 717.714 937.44 716.919 940.684 716.919C967.315 716.919 993.772 716.734 1020.35 715.144C1031.02 714.516 1041.66 714.035 1052.35 714.109C1053.33 714.109 1058.05 714.756 1059.51 714.238C1063.24 712.926 1063.79 705.179 1064.54 702.184C1067.25 691.534 1070.92 681.051 1073.84 670.439C1077 658.902 1078.06 647.013 1081.02 635.403C1082.55 629.357 1083.42 623.052 1085.63 617.191C1087.81 611.349 1091.27 605.691 1093.86 599.978C1096.09 595.226 1102.19 585.316 1099.56 579.659Z" fill="#99BC85"/>
<path d="M1440 535.083V582.765C1439.54 585.501 1439.06 588.219 1438.56 590.955C1435.95 604.988 1432.63 618.744 1428.61 632.444C1428.38 633.239 1428.13 634.053 1427.9 634.848C1426.67 638.934 1425.43 643.02 1424.1 647.087C1421.93 653.799 1419.59 660.455 1416.92 666.981C1415.5 670.476 1414.18 675.301 1412.29 679.332C1412.27 679.332 1412.27 679.35 1412.27 679.35C1412.27 679.369 1412.26 679.369 1412.26 679.387C1412.26 679.406 1412.24 679.406 1412.24 679.424C1412.24 679.443 1412.22 679.48 1412.2 679.498V679.517C1411.24 681.532 1410.14 683.344 1408.82 684.693C1408.59 684.934 1408.34 685.156 1408.11 685.359C1408.09 685.377 1408.07 685.396 1408.05 685.414C1406.25 686.949 1404.4 687.485 1401.6 687.966C1389.87 690.037 1377.81 689.26 1365.93 689.094C1365.16 689.075 1364.39 689.057 1363.62 689.057C1359.78 689.02 1355.94 689.075 1352.1 689.205C1350.41 689.26 1348.72 689.316 1347.01 689.389C1322.34 690.425 1297.8 693.623 1273.07 693.475C1272.79 693.475 1272.52 693.476 1272.23 693.457C1271.98 693.457 1271.73 693.457 1271.5 693.439C1265.99 693.346 1260.5 692.81 1255.01 692.403C1250.8 692.089 1246.58 691.867 1242.35 691.959L1223.63 686.413C1237.86 680.589 1248.9 666.223 1259.12 655.555C1259.21 655.463 1259.29 655.389 1259.37 655.296C1265.78 648.603 1272.02 641.781 1278.2 634.903C1281.62 631.132 1285 627.323 1288.38 623.514C1294.44 616.673 1301.32 610.276 1306.64 602.862C1311.3 596.354 1311.24 589.902 1313.03 582.654C1314.55 576.46 1318.94 571.376 1321.69 565.718C1323.44 562.113 1324.78 558.415 1326.22 554.699C1327.7 550.909 1329.22 547.008 1330.83 543.162C1332.21 539.797 1333.65 536.432 1335.15 533.197C1337.66 527.798 1341.62 522.991 1344.65 517.851C1348.34 511.602 1353.43 505.87 1358.69 500.767C1361.89 497.643 1365.79 495.35 1369.07 492.337C1371.88 489.748 1374.26 486.735 1377.6 484.756C1378.5 484.22 1379.94 483.499 1381.48 482.944C1381.5 482.944 1381.52 482.944 1381.54 482.926C1383.09 482.39 1384.74 482.038 1386.03 482.316H1386.05C1386.74 482.464 1387.33 482.759 1387.76 483.314C1388.83 484.701 1387.81 490.876 1387.68 492.503C1386.34 507.405 1384.2 522.048 1381.55 536.636C1380.08 544.771 1378.43 552.869 1376.66 561.022V561.041C1376.35 562.594 1376.01 564.128 1375.66 565.681C1373.15 577.144 1370.3 588.848 1369.15 600.496C1367.94 612.661 1363.2 624.439 1358.86 635.846C1358.32 637.214 1357.94 638.619 1357.63 640.025C1357.09 642.521 1356.77 645.035 1356.33 647.513C1355.96 649.472 1355.52 651.432 1354.83 653.318C1355.79 651.34 1356.71 649.343 1357.63 647.328C1358.69 645.017 1359.74 642.687 1360.78 640.357C1364.24 632.722 1367.79 625.16 1372.38 618.189C1377.12 611.016 1381.57 603.768 1386.11 596.447C1389.52 590.937 1393.32 585.945 1396.97 580.565C1401.43 573.983 1406.36 567.604 1410.24 560.708C1412.79 556.16 1415.33 550.816 1418.8 546.472C1420.28 544.623 1421.93 542.94 1423.81 541.591C1428.61 538.152 1434.76 537.523 1440 535.083Z" fill="#99BC85"/>
<path d="M212.122 490.969C211.334 492.041 210.528 493.132 209.76 494.241C207.706 497.163 205.805 500.176 204.326 503.356C200.698 511.14 196.819 519.072 193.862 527.096C191.654 533.068 190.387 539.65 187.45 545.289C185.05 549.892 184.627 555.568 181.574 559.784C180.518 561.226 179.059 562.317 178.042 563.777C174.72 568.492 172.608 574.39 170.17 579.567C165.062 590.457 160.166 601.439 154.656 612.144C152.333 616.655 149.184 621 145.402 624.513C143.52 626.251 141.216 627.434 138.97 628.71C137.318 629.634 135.706 630.614 134.304 631.871C128.045 637.474 122.016 643.445 116.16 649.565C115.738 649.99 115.315 650.434 114.912 650.878C109.018 657.053 103.277 663.358 97.6128 669.588C92.6016 675.098 89.2224 681.699 85.6704 688.096C81.696 695.251 77.0688 702.166 72.7104 709.136C72.2688 709.838 71.8272 710.56 71.3856 711.262C67.2384 717.955 62.5536 724.223 59.0208 731.211C58.6752 731.803 58.3872 732.413 58.0992 733.023C56.8704 735.667 55.968 739.624 53.7792 741.861C53.2992 742.36 52.7616 742.785 52.128 743.081C50.1888 744.006 47.9232 744.597 45.5424 744.986C44.8512 745.096 44.1408 745.207 43.4304 745.281C40.704 745.614 37.9392 745.762 35.424 745.947C34.7904 745.984 34.176 746.039 33.5808 746.095C33.408 746.113 33.216 746.132 33.0432 746.15C31.392 746.317 29.8176 746.576 28.3008 746.908C26.8032 747.241 25.344 747.666 23.8848 748.184C22.6752 748.591 21.4848 749.072 20.256 749.589C19.2384 750.033 18.2592 750.421 17.2608 750.773C16.0128 751.198 14.7456 751.549 13.4592 751.808C12.2112 752.067 10.9056 752.215 9.5616 752.27C9.1008 752.289 8.64 752.289 8.16 752.289C5.4912 752.27 2.7456 752.326 0 752.344V715.514C5.6832 710.504 11.4624 705.642 18.1824 702.48C23.8848 699.799 29.6064 697.451 35.52 695.269C44.2752 692.034 49.8432 683.954 57.4272 678.888C69.1776 671.031 80.5056 661.897 90.7008 652.246C91.5456 651.433 92.3712 650.619 93.1584 649.769H93.1776C95.0592 647.753 96.7872 645.627 98.4192 643.371C103.603 636.198 108.883 628.765 113.395 621C116.698 615.287 119.597 609.408 121.709 603.288C122.65 600.588 122.477 598.056 123.091 595.338C123.917 591.751 125.837 588.238 127.027 584.744C129.965 576.017 134.112 567.697 137.856 559.266C139.334 555.938 138.893 553.276 139.546 549.763C139.91 547.803 140.794 546.121 140.736 544.105C140.64 539.428 137.587 536.303 135.763 532.421C135.725 532.365 135.706 532.291 135.667 532.236C134.419 529.481 134.515 525.839 134.669 522.585C135.744 522.548 136.781 522.437 137.779 522.289C142.81 521.586 149.242 517.999 153.562 516.095C162.432 512.268 171.648 509.458 180.518 505.686C183.686 504.336 186.758 502.857 189.811 501.359C189.83 501.359 189.85 501.341 189.869 501.341C192.288 500.139 194.707 498.919 197.126 497.736C197.568 497.514 198.01 497.292 198.451 497.089C199.258 496.7 200.064 496.312 200.87 495.924C201.638 495.572 202.406 495.221 203.174 494.87C204.058 494.463 204.96 494.075 205.862 493.687C206.861 493.261 207.859 492.836 208.877 492.448C210.106 491.967 211.142 491.431 212.122 490.969Z" fill="#99BC85"/>
<path d="M405.678 708.914C402.356 710.227 396.308 707.675 392.737 707.583C390.337 707.527 387.764 708.064 385.441 707.379C381.332 706.159 375.63 702.277 372.347 699.651C369.102 697.081 366.932 694.955 365.646 691.054C363.668 685.156 360.731 680.867 356.968 675.838C354.568 672.658 353.396 668.96 350.958 665.761C349.134 663.376 346.83 661.361 345.006 659.05C340.667 653.522 336.808 647.661 332.296 642.244C324.289 632.574 316.686 622.867 310.484 611.959C308.603 608.668 306.74 605.396 305.051 602.049C305.723 604.416 306.049 606.93 307.105 609.149C307.969 610.979 309.716 612.458 310.35 614.4C311.387 617.58 310.58 621.703 310.542 624.975C310.427 637.529 315.476 651.155 320.852 662.378C326.382 673.933 331.451 685.6 336.692 697.285C337.96 700.132 339.188 702.572 339.496 705.641C339.592 706.658 339.323 707.527 339.592 708.544C337 706.473 332.142 706.677 329.012 705.993C324.366 704.976 319.681 703.386 315.112 702.073C308.411 700.15 300.481 696.471 293.512 696.397C292.302 693.809 293.243 689.02 293.3 686.154C293.377 680.941 291.4 677.576 288.923 672.972C286.331 668.165 284.987 663.043 284.603 657.626C284.238 652.375 282.856 647.457 282.088 642.244C281.185 636.142 280.283 629.283 280.321 623.126C280.36 617.469 278.824 612.199 278.862 606.56C278.9 602.308 278.728 598.056 278.824 593.822C278.939 589.384 280.398 585.298 280.34 580.879C280.187 569.953 280.321 559.026 280.321 548.08C280.321 542.885 280.82 537.949 279.016 533.012C275.905 524.507 271.662 515.54 266.286 508.145C265.844 507.535 265.384 506.925 264.923 506.314C268.628 507.683 272.411 508.866 276.232 509.883C276.846 511.99 277.249 513.969 277.441 514.875C278.459 519.922 281.454 524.064 283.604 528.778C284.814 531.441 285.428 533.585 287.137 535.989C288.788 538.318 291.38 540.759 292.628 543.255C294.107 546.213 292.628 549.282 293.204 552.314C293.953 556.29 295.009 560.56 296.872 564.184C299.099 568.548 300.961 573.077 303.323 577.385C304.705 579.9 306.894 581.49 308.449 583.801C310.235 586.5 311.675 590.457 312.769 593.378C314.536 598.148 317.454 601.957 319.912 606.431C323.08 612.218 327.361 614.991 332.123 619.484C337.288 624.365 341.665 629.616 345.62 635.384C351.246 643.575 359.31 649.491 365.224 657.571C372.558 667.573 379.028 678.241 386.804 687.929C390.76 692.847 395.387 697.71 399.668 702.369C401.224 704.07 404.641 706.621 405.678 708.914Z" fill="#99BC85"/>
<path d="M903.263 587.018C903.224 587.055 903.205 587.092 903.167 587.129C900.747 590.05 898.789 593.766 896.677 596.928C891.512 604.656 887.73 613.161 882.623 620.963C872.792 636.013 864.133 651.506 856.319 667.573C852.325 675.764 847.947 682.456 845.816 691.276C844.895 695.084 842.955 696.305 840.786 699.3C838.271 702.813 836.351 706.048 833.375 709.358C828.594 714.645 822.623 716.882 817.4 721.449C812.216 725.979 807.723 729.436 801.503 732.616C797.471 734.669 794.687 738.015 791.269 740.825C781.4 748.923 771.819 757.077 762.661 765.97C758.687 769.834 754.443 772.885 750.315 776.472C747.186 779.171 743.653 780.798 740.293 783.22C736.914 785.642 732.959 787.343 729.234 789.321C727.909 790.005 726.642 790.745 725.413 791.54C722.975 793.148 715.871 799.583 712.511 799.065C711.493 795.46 713.106 792.224 715.371 789.247C717.215 786.788 719.499 784.533 721.131 782.388C727.525 773.92 734.591 765.526 739.679 756.226C741.426 753.065 743.903 750.218 745.496 747.075C747.416 743.266 748.165 738.625 749.739 734.65C753.253 725.849 756.075 716.772 759.839 708.026C764.178 697.95 765.579 687.023 769.995 677.002C774.335 667.166 776.619 656.498 780.824 646.588C781.727 644.462 782.591 642.225 783.455 639.914C793.919 637.714 804.651 632.907 813.848 628.321C837.311 616.6 859.122 602.03 883.947 592.786C890.226 590.456 896.85 588.977 903.263 587.018Z" fill="#99BC85"/>
<path d="M1246 512.656C1245.75 513.044 1245.5 513.414 1245.27 513.784C1238.03 524.97 1232.22 537.357 1228.43 550.04C1223.98 564.998 1219.1 580.787 1210.52 594.006C1204.34 603.528 1196.06 609.999 1187.5 617.635C1181.62 622.849 1176.06 628.691 1170.49 634.219C1165.75 638.916 1161.98 644.943 1156.86 649.269C1151.17 654.058 1142.15 654.576 1137.5 660.289C1134.85 663.524 1132.76 667.074 1129.86 670.18C1126.54 673.748 1123.54 677.354 1121.16 681.551C1116.96 688.946 1114.1 696.804 1110.28 704.31C1106.8 711.114 1098.68 712.871 1092.46 717.031C1087.39 720.432 1081.9 723.28 1076.72 726.497C1070.94 730.102 1064.04 735.926 1057.19 737.239C1068.79 727.329 1078.23 716.605 1086.47 704.014C1094.74 691.368 1102.41 678.408 1111.08 666.002C1116.46 658.292 1122.72 650.471 1127 642.133C1131.46 633.443 1136.64 623.958 1139.33 614.566C1140.36 610.942 1139.56 607.3 1140.29 603.658C1140.92 600.514 1142.09 597.519 1142.59 594.339C1143.76 586.87 1141.86 579.585 1144.13 572.227C1144.36 571.45 1144.63 570.692 1144.93 569.953H1144.95C1146.91 569.62 1148.79 568.991 1150.81 568.067C1180.09 554.533 1207.22 539.206 1233.85 521.235C1237.59 518.702 1241.74 515.559 1246 512.656Z" fill="#99BC85"/>
</svg>
