<svg width="1441" height="925" viewBox="0 0 1441 925" fill="none" xmlns="http://www.w3.org/2000/svg">
<path d="M1406.76 429.956C1417.82 426.961 1428.92 424.298 1440 421.506V649.713C1437.89 649.546 1435.78 649.288 1433.68 648.899C1430.52 648.308 1427.31 647.698 1424.1 647.087C1419.55 646.237 1415 645.423 1410.45 644.832C1407.88 644.499 1405.29 644.277 1402.69 644.092C1396.36 643.649 1389.98 643.519 1383.65 643.02C1381.52 642.854 1379.4 642.632 1377.27 642.354C1371.82 641.652 1366.31 640.986 1360.78 640.358C1359.74 640.247 1358.69 640.117 1357.63 640.025C1348.97 639.063 1340.28 638.268 1331.67 637.64C1321.48 636.882 1311.48 635.717 1301.34 635.181C1297.34 634.94 1293.35 634.811 1289.3 634.848C1285.61 634.885 1281.91 634.903 1278.2 634.903C1266.64 634.94 1255.08 634.903 1243.55 634.866C1239.8 634.848 1236.12 634.866 1232.47 634.977C1217.72 635.292 1203.53 636.475 1188.61 638.952C1186.41 639.322 1184.18 639.618 1181.95 639.84C1176.29 640.432 1170.59 640.598 1164.86 640.616C1157.84 640.635 1150.79 640.413 1143.8 640.413H1127.88C1112.58 640.432 1097.28 640.413 1081.96 640.284H1079.96C1068.83 640.284 1057.77 641.023 1046.71 641.892H1046.69C1036.93 642.669 1027.18 643.556 1017.41 644.129C1011.9 644.444 1006.41 644.665 1000.88 644.721C988.147 644.832 973.824 642.724 961.498 646.311C959.194 646.977 956.966 647.698 954.701 648.271C952.896 648.751 951.053 649.121 949.114 649.306C938.227 650.378 927.053 649.75 916.109 649.972C899.693 650.378 883.258 651.044 866.88 652.338C865.92 652.412 864.941 652.486 863.981 652.579H863.962C859.949 652.893 855.936 653.207 851.923 653.522C846.893 653.91 841.862 654.28 836.832 654.612C835.315 654.705 833.779 654.797 832.262 654.89H832.07C831.283 654.945 830.515 655.001 829.747 655.038C828.691 655.093 827.635 655.149 826.598 655.204H826.579C818.688 655.611 810.816 655.851 802.906 655.833C798.202 655.833 793.517 655.74 788.832 655.574C788.659 655.574 788.486 655.574 788.314 655.555H788.256C787.757 655.537 787.296 655.537 786.816 655.5H786.797C783.898 655.407 781.018 655.278 778.118 655.149C777.965 655.13 777.792 655.13 777.638 655.13C776.947 655.093 776.256 655.056 775.565 655.019C774.163 654.945 772.781 654.871 771.379 654.797C768.23 654.631 765.082 654.446 761.933 654.261C761.683 654.243 761.434 654.224 761.184 654.224C759.398 654.113 757.632 654.021 755.866 653.947C746.861 653.522 737.914 653.374 728.966 653.392H728.947C723.725 653.411 718.541 653.503 713.338 653.651C703.91 653.891 694.522 654.298 685.094 654.797C669.581 655.611 654.048 656.646 638.4 657.515C633.638 657.774 628.877 657.996 624.115 658.162C619.507 658.347 614.918 658.477 610.31 658.569C608.563 658.606 606.797 658.643 605.03 658.661H604.973C601.92 658.717 598.867 658.754 595.814 658.754H595.795C570.24 658.902 544.685 657.977 519.168 656.369C513.312 656.018 507.456 655.611 501.6 655.167C499.526 655.019 497.453 654.871 495.36 654.705C493.651 654.575 491.923 654.446 490.195 654.298C489.331 654.224 488.486 654.169 487.622 654.095C459.245 651.839 431.059 650.046 402.797 649.343C387.898 648.973 372.979 648.918 358.003 649.251C351.437 649.417 344.851 649.657 338.246 649.972H338.112C330.758 650.341 323.424 650.804 316.07 651.284C305.414 651.968 294.758 652.708 284.083 653.263C277.19 653.632 270.298 653.928 263.386 654.076C255.091 654.243 246.797 654.317 238.483 654.335C228.518 654.372 218.534 654.335 208.57 654.335C190.656 654.335 172.704 654.15 154.79 653.577C152.582 653.522 150.394 653.429 148.186 653.355C147.091 653.318 145.997 653.263 144.902 653.207C135.302 652.726 125.76 651.765 116.198 650.989C115.776 650.952 115.334 650.915 114.912 650.878C112.032 650.637 109.19 650.434 106.31 650.249H106.291C102.778 650.027 99.2448 649.861 95.712 649.787C94.8672 649.768 94.0224 649.75 93.1776 649.768H93.1584C73.6512 649.62 53.184 653.115 34.08 655.703C28.8192 656.424 23.5584 657.164 18.2976 657.885C12.2112 658.717 6.1056 659.512 0 660.214V529.961C0.4608 529.499 0.8832 529.037 1.2864 528.556C3.4752 526.042 5.2416 523.287 6.72 520.236C12.4992 508.292 27.8784 500.934 41.568 499.732C41.8368 499.695 42.0864 499.677 42.3552 499.658C52.8 498.919 59.9232 490.303 69.504 487.086C71.8272 486.309 74.3424 485.718 76.9344 485.163C80.8512 484.35 84.96 483.684 88.896 482.76C91.488 482.131 95.04 481.798 97.4016 481.022C101.491 479.709 105.12 477.416 109.133 475.734C110.17 475.29 111.245 474.883 112.358 474.551C129.254 469.392 148.608 473.719 166.08 471.629C172.282 470.89 181.229 471.001 188.16 468.782C190.022 468.19 191.731 467.451 193.19 466.471C193.267 466.434 193.325 466.379 193.402 466.323C193.594 466.194 193.786 466.064 193.958 465.898C194.362 465.62 194.726 465.306 195.072 464.973L195.168 464.881C195.187 464.862 195.187 464.862 195.206 464.825C199.776 460.333 204.038 454.915 208.032 449.85C208.416 449.332 208.8 448.851 209.184 448.352C209.76 447.612 210.278 446.891 210.758 446.17C211.142 445.616 211.488 445.061 211.814 444.506C211.987 444.229 212.16 443.933 212.314 443.656C213.178 442.158 213.926 440.642 214.675 439.015C215.213 437.906 215.731 436.76 216.288 435.539C216.73 434.578 217.824 431.583 219.283 429.327C220.282 427.756 221.434 426.554 222.662 426.554H222.72C225.734 426.665 226.003 430.88 227.578 432.692C227.597 432.692 227.635 432.729 227.635 432.766C229.613 434.948 230.515 434.911 233.472 435.207C235.661 435.428 237.619 434.8 239.846 435.428C239.904 435.465 239.981 435.465 240.038 435.502C246.221 437.388 249.984 443.859 256.762 445.412C257.203 445.486 257.626 445.597 258.067 445.671C268.032 447.298 277.651 441.752 287.885 444.599C288.326 444.71 288.749 444.858 289.19 445.006C296.582 447.594 298.406 452.66 302.842 458.687C310.061 468.523 318.202 476.714 326.746 485.163C328.186 486.587 329.626 488.01 331.085 489.452C338.726 496.145 343.91 504.872 351.11 512.009C359.155 519.959 367.776 522.288 378.566 526.652C384.576 529.037 389.894 532.753 395.616 535.711C404.698 540.407 414.163 544.124 423.802 547.581C428.218 549.134 432.192 550.687 436.589 551.612C437.894 551.907 438.874 552.721 440.16 552.943C441.35 553.165 442.694 552.721 443.827 552.98C446.208 553.516 446.803 554.533 449.818 554.459C450.701 554.44 451.546 554.348 452.371 554.2C455.789 553.645 458.899 552.296 462.374 551.371C472.666 548.598 481.574 543.846 491.462 540.223C496.013 538.577 501.389 537.153 506.784 536.229C511.296 535.452 515.827 535.027 519.917 535.027C534.893 535.046 549.696 536.414 564.71 536.414C568.147 536.414 571.546 535.952 574.906 535.194C575.405 535.083 575.866 534.972 576.365 534.842C576.365 534.842 576.365 534.842 576.384 534.842C579.725 534.029 583.027 532.956 586.272 531.755C586.502 531.681 586.714 531.607 586.925 531.533C589.536 530.571 592.128 529.555 594.739 528.556C601.152 526.116 607.526 523.638 613.939 521.198C617.626 519.811 621.312 518.424 625.018 517.075C625.939 516.723 626.861 516.391 627.782 516.058C629.587 515.392 631.411 514.745 633.235 514.116C634.848 513.562 636.442 512.989 638.035 512.397C638.918 512.083 639.782 511.75 640.666 511.436C644.102 510.16 647.539 508.866 650.995 507.627C651.955 507.276 652.915 506.943 653.875 506.61C653.971 506.555 654.086 506.518 654.202 506.499C655.469 506.055 656.717 505.63 657.984 505.223C658.579 505.02 659.194 504.817 659.789 504.632H659.808L660.154 504.521C660.365 504.447 660.576 504.373 660.787 504.317C661.574 504.059 662.381 503.837 663.187 503.596C665.53 502.912 667.891 502.321 670.253 501.71C673.094 500.971 675.936 500.213 678.701 499.215C682.214 497.92 686.304 495.757 690.394 494.888C691.392 494.685 692.352 494.555 693.331 494.518C694.618 494.5 695.866 494.648 697.094 495.036C698.496 495.443 700.013 496.885 701.338 497.551C703.238 498.512 705.274 499.288 707.29 500.046C708.749 500.583 710.208 501.119 711.61 501.729C717.005 503.985 722.112 506.832 727.315 509.494C735.878 513.839 744.576 517.796 753.37 521.549C753.773 521.734 754.195 521.9 754.598 522.067C762.643 525.487 770.784 528.741 778.963 531.958C779.942 532.346 780.941 532.735 781.92 533.104C785.914 534.657 789.946 536.173 793.978 537.653C804.154 541.443 814.406 545.085 824.621 548.801C830.304 550.891 834.95 554.44 840.595 556.53C846.989 558.915 853.555 560.412 860.045 562.446C862.33 563.149 864.614 563.629 866.899 563.851C876.634 564.887 886.253 562.113 896.064 560.301C899.77 559.599 903.302 559.155 906.893 558.896C909.293 558.711 911.731 558.6 914.246 558.563C922.253 558.489 929.28 561.337 937.037 562.816C938.285 563.075 939.59 563.296 940.915 563.481C946.886 564.369 953.434 564.813 959.27 564.165C964.608 563.555 969.043 560.523 973.882 558.563C976.397 557.528 979.008 556.825 981.907 556.862C986.458 556.918 990.586 557.38 995.117 556.419C995.251 556.382 995.386 556.345 995.52 556.308C1007.46 553.534 1018.87 544.66 1027.28 536.377C1030.5 533.178 1031.98 529.185 1035.53 526.411C1036.24 525.838 1036.99 525.358 1037.78 524.951C1040.26 523.694 1043.02 523.139 1045.88 522.51C1050.53 521.475 1056.33 521.475 1061.13 520.809C1065.85 520.181 1070.57 519.256 1075.3 518.702C1080.38 518.091 1085.28 517.814 1090.31 516.705C1093.88 515.965 1096.88 514.153 1100.35 513.155C1106.27 511.417 1112.31 510.567 1117.96 508.348C1119.19 507.83 1120.45 507.497 1121.74 507.202C1122.36 507.054 1122.97 506.906 1123.56 506.739C1124.43 506.536 1125.27 506.296 1126.1 506.018C1127.1 505.667 1128.08 505.223 1129.04 504.706C1129.13 504.669 1129.21 504.613 1129.31 504.576C1129.59 504.428 1129.9 504.262 1130.19 504.096C1130.75 503.8 1131.28 503.467 1131.82 503.134C1133.41 502.154 1134.99 501.082 1136.62 500.102C1146.84 494.056 1156.74 487.493 1166.78 481.17C1166.82 481.133 1166.88 481.114 1166.92 481.096C1167.19 480.911 1167.48 480.744 1167.74 480.559C1168.26 480.245 1168.78 479.912 1169.3 479.561C1171.66 478.008 1174.02 476.399 1176.44 474.92C1177.09 474.514 1177.75 474.107 1178.42 473.737C1178.9 473.46 1179.38 473.182 1179.86 472.924C1180.17 472.757 1180.45 472.591 1180.76 472.443C1181.32 472.147 1181.89 471.87 1182.47 471.592C1184.39 470.668 1186.14 469.596 1188.02 468.967C1189.44 468.523 1190.92 468.375 1192.57 468.782C1196.03 469.67 1199.83 471.038 1202.96 472.295C1207.47 474.07 1210.58 477.361 1215.28 479.247C1218.78 480.652 1222.23 481.724 1225.77 482.833C1227.05 483.24 1228.36 483.665 1229.68 484.091C1233.2 485.274 1236.35 486.513 1240.09 486.494C1243.64 486.457 1246.04 487.049 1249.36 487.751C1256.77 489.342 1264.55 487.493 1272 487.715C1281.72 487.973 1291.49 490.007 1301.22 489.305C1302.74 489.194 1304.22 488.953 1305.66 488.565C1309.59 487.493 1313.24 485.57 1316.72 483.462C1324.3 478.951 1332.12 473.7 1339.33 468.634C1351.08 460.425 1361.26 449.295 1374.32 443.231C1376.26 442.343 1377.77 440.938 1379.29 439.644C1380.69 438.424 1382.11 437.24 1383.92 436.575C1391.16 433.875 1399.24 431.989 1406.76 429.956Z" fill="#D4E7C5"/>
<path d="M906.893 558.896C905.991 559.599 905.127 560.357 904.339 561.263C900.019 566.31 896.851 571.118 894.72 577.311C892.647 583.376 888.576 587.055 882.739 589.754C878.074 591.917 873.696 594.931 870.72 598.98C868.781 601.624 867.725 604.323 866.4 607.281C864.922 610.628 862.733 612.81 860.16 615.472C857.299 618.449 853.882 620.242 850.157 622.128C843.687 625.419 837.351 628.932 830.88 632.204C823.431 635.976 815.52 639.193 807.341 641.208C803.251 642.207 798.24 644.167 793.939 644.203C795.322 641.412 798.355 637.751 800.602 635.31C803.943 631.668 808.051 627.841 812.007 624.846C816.403 621.499 820.167 617.21 823.699 613.068C825.408 611.053 827.251 609.814 829.421 608.317C831.763 606.69 833.415 604.933 835.392 602.955C839.04 599.313 844.915 597.076 847.68 592.638C848.352 591.011 849.312 589.569 850.56 588.294C851.635 587.573 852.634 586.778 853.555 585.89C854.362 584.67 854.688 582.636 855.111 581.249C856.378 577.108 856.186 573.817 859.239 570.396C861.255 568.122 863.578 566.384 865.978 564.536C866.227 564.351 866.554 564.11 866.899 563.87C876.634 564.905 886.253 562.113 896.064 560.302C899.77 559.618 903.303 559.155 906.893 558.896Z" fill="#BFD8AF"/>
<path d="M974.399 559.284C971.096 562.76 971.653 568.399 970.828 572.707C970.328 575.24 970.079 578.087 969.426 580.565C968.888 582.691 967.045 584.336 965.759 586.074C964.261 588.09 963.224 590.234 961.9 592.36C960.498 594.598 960.21 596.779 959.058 599.109C958.367 600.514 956.312 605.21 954.431 605.414C953.778 603.509 954.258 601.05 954.258 599.072C954.258 595.448 953.164 592.36 952.53 588.848C952.031 586.13 951.666 583.967 950.399 581.434C949.304 579.233 948.44 577.311 947.557 575C946.597 572.541 944.965 570.377 943.679 568.048C942.892 566.606 941.72 565.09 940.914 563.5C946.885 564.387 953.432 564.831 959.269 564.184C964.607 563.573 969.042 560.541 973.88 558.582L974.399 559.284Z" fill="#BFD8AF"/>
<path d="M879.361 644.333C879.591 638.49 881.53 633.332 882.529 627.637C883.085 624.383 883.565 621.203 884.276 617.986C884.909 615.12 886.349 612.513 887.079 609.666C887.617 607.503 889.037 604.323 889.057 602.067C886.676 606.837 881.953 611.423 877.863 614.843C874.349 617.783 871.201 620.963 867.841 624.069C865.229 626.454 862.157 627.341 859.201 629.172C856.186 631.039 854.17 632.407 850.637 633.258C847.431 634.053 843.591 635.255 840.865 637.14C838.465 638.786 835.988 640.968 834.337 643.297C833.377 644.628 831.495 646.255 831.322 647.938C832.935 648.567 835.277 648.049 836.986 647.845C843.937 647.032 850.81 647.087 857.818 647.124C861.485 647.143 865.709 647.79 869.261 646.718C873.005 645.59 874.426 642.817 876.442 639.729L879.361 644.333Z" fill="#BFD8AF"/>
<path d="M1034.88 545.659V562.058C1034.88 564.277 1035.23 566.754 1034.92 568.954C1034.63 571.136 1033.04 572.966 1032 574.963C1026.99 584.577 1022.59 594.857 1020.59 605.433C1020.19 607.614 1019.06 609.352 1018.35 611.479C1017.45 614.141 1016.08 616.47 1014.7 618.929C1012.84 622.22 1011.72 626.584 1008.9 629.209C1009.19 627.786 1008.56 627.028 1008.21 625.733C1007.54 623.126 1008 620.057 1008 617.413C1008 610.203 1007.94 603.343 1009.07 596.262C1009.42 594.192 1009.77 592.287 1009.92 590.198C1010.02 588.885 1010.53 588.46 1010.8 587.406C1011.4 584.966 1010.82 581.841 1009.54 579.678C1008.08 577.256 1005.5 574.63 1003.66 572.43C1001.76 570.175 1000.82 567.974 999.398 565.497C997.44 562.151 995.5 560.524 995.52 556.678V556.327C1007.46 553.553 1018.87 544.66 1027.28 536.377C1030.5 533.197 1031.98 529.204 1035.53 526.412C1036.24 525.857 1036.99 525.376 1037.78 524.97C1037.76 527.225 1037.41 529.315 1036.8 531.57C1035.49 536.285 1034.88 540.778 1034.88 545.659Z" fill="#BFD8AF"/>
<path d="M1189.44 469.614C1188.19 470.668 1188.59 471.943 1188.35 473.311C1187.4 478.248 1185.43 483.221 1184.16 488.121C1181.97 496.57 1180.17 504.354 1175.08 511.639C1170.7 517.888 1167.3 524.044 1165.67 531.366C1164.77 535.489 1163.25 539.427 1162.5 543.606C1161.06 551.685 1153.57 557.953 1151.04 565.792C1148.85 572.559 1143.8 578.753 1140.67 585.187C1138.89 588.866 1137.5 592.323 1135.22 595.762C1132.93 599.22 1130.67 602.77 1128.71 606.393C1127 609.536 1125.1 612.864 1123.76 616.155C1123.16 617.598 1123.03 620.704 1121.47 621.314C1120.63 618.208 1121.11 614.048 1121.22 610.868C1121.38 607.466 1121.87 604.101 1122.24 600.736C1122.7 596.465 1124.08 592.379 1124.26 588.053C1124.41 584.595 1124.37 581.119 1124.27 577.643C1124.06 569.934 1123.93 562.15 1124.12 554.44C1124.18 552.388 1124.51 550.557 1124.89 548.524C1125.06 547.544 1125.45 546.619 1124.91 545.695C1121.63 549.744 1119.65 554.939 1116.94 559.358C1113.73 564.59 1110.78 570.137 1107.82 575.517C1106.09 578.66 1104.9 581.988 1102.89 584.983C1098.72 591.177 1094.71 597.5 1090.58 603.731C1086.32 610.165 1082.55 616.839 1078.02 623.107C1075.95 625.973 1072.38 629.541 1072.11 633.165C1068.25 633.664 1064.1 633.22 1060.19 633.22C1056.9 633.22 1050.66 634.33 1047.59 633.073C1049.53 630.355 1052.29 628.321 1054.23 625.511C1059.51 617.875 1063.45 609.204 1068.36 601.327C1074.3 591.824 1078.33 581.822 1083.07 571.745C1088.87 559.432 1097.91 550.225 1107.82 540.758C1111.78 536.987 1115.87 533.862 1118.02 528.889C1120.15 523.989 1122.68 518.664 1122.89 513.266C1122.95 511.731 1121.78 509.697 1122.2 508.237C1122.43 507.405 1122.78 507.257 1123.47 506.794C1125.12 505.648 1127.9 505.352 1129.77 504.336C1132.13 503.06 1134.32 501.47 1136.62 500.102C1146.83 494.056 1156.74 487.474 1166.78 481.169C1171.95 477.934 1176.94 474.18 1182.47 471.573C1184.39 470.668 1186.14 469.577 1188.02 468.967L1189.44 469.614Z" fill="#BFD8AF"/>
<path d="M1379.29 439.644C1377.93 441.419 1376.7 443.305 1375.47 445.32C1370.67 453.233 1366.12 461.682 1362.51 470.15C1360.78 474.181 1360.53 477.897 1359.8 482.131C1359.15 485.847 1357.4 488.768 1355.48 491.967C1353.14 495.85 1350.55 499.584 1348.7 503.707C1347.88 505.556 1347.11 507.405 1346 509.106C1342.52 514.357 1337.51 518.831 1333.67 523.86C1330.58 527.891 1328.33 532.161 1325.57 536.395C1322.9 540.518 1319.83 544.327 1316.93 548.302C1310.61 556.992 1305.33 566.347 1298.94 574.963C1294.08 581.508 1288.93 587.96 1284.48 594.764C1282.43 597.926 1281.2 601.494 1279.18 604.674C1278.11 606.375 1276.42 608.021 1275.74 609.907C1276.07 607.743 1275.65 605.562 1275.9 603.399C1276.47 598.407 1278.66 593.84 1280.18 589.07C1281.41 585.15 1282.35 581.138 1283.56 577.219C1286.76 566.828 1287.38 555.901 1290.51 545.584C1291.72 541.591 1293.08 537.357 1293.14 533.178C1293.22 528.427 1293.6 522.547 1295.58 518.147C1296.02 517.149 1296.86 516.372 1297.36 515.392C1298.02 514.116 1298.15 512.767 1298.61 511.417C1299.34 509.328 1300.49 507.405 1301.28 505.334C1303.33 499.899 1305.48 495.332 1305.64 489.434C1305.66 489.138 1305.66 488.842 1305.66 488.565C1309.59 487.511 1313.24 485.57 1316.72 483.481C1324.3 478.951 1332.12 473.7 1339.33 468.653C1351.08 460.425 1361.26 449.313 1374.32 443.249C1376.26 442.343 1377.77 440.956 1379.29 439.644Z" fill="#BFD8AF"/>
<path d="M1421.51 503.005C1418.52 503.412 1415.35 511.898 1414.14 513.747C1409.99 520.07 1404.92 526.911 1399.49 532.291C1396.57 535.176 1393.19 537.505 1390.43 540.574C1387.97 543.292 1386.11 546.491 1384.11 549.523C1379.69 556.253 1375.41 563.02 1371 569.749C1364.81 579.179 1353.95 585.169 1347.8 594.635C1346.82 596.151 1346.48 596.946 1345.23 598.222C1339.32 604.212 1331.25 608.742 1324.63 614.012C1317.41 619.762 1310.52 625.9 1304.06 632.445C1299.69 636.882 1295.6 640.469 1293.12 646.182L1348.8 663.746C1357.15 661.823 1365.58 660.344 1374.09 659.29C1379.73 658.921 1385.36 659.106 1390.96 659.808C1391.12 659.827 1398.57 660.917 1399.47 659.901C1400.97 658.2 1400.97 653.226 1401.33 650.897C1402.23 645.257 1403.79 639.84 1404.81 634.238C1405.63 629.69 1405.11 625.216 1405.61 620.649C1405.94 617.765 1406.63 614.88 1407.09 612.015C1407.72 607.984 1408.4 603.898 1410.18 600.145C1411.81 596.725 1413.27 594.062 1414.1 590.327C1415.73 583.024 1417.4 576.054 1417.9 568.548C1418.13 565.146 1418.78 561.818 1418.92 558.416C1419.11 553.073 1418.42 547.711 1419.01 542.386C1419.92 534.417 1423.81 527.133 1423.68 519.053C1423.62 514.283 1424.87 506.962 1421.51 503.005Z" fill="#BFD8AF"/>
<path d="M1248.52 564.887C1246.81 566.625 1246.08 569.102 1244.98 571.173C1242.49 575.869 1238.99 580.306 1235.92 584.651C1232.22 589.92 1228.68 595.319 1224.09 599.923C1219.81 604.212 1215.88 608.686 1211.67 613.05C1203.93 621.092 1194.51 627.323 1186.52 635.033C1181.16 640.191 1176.94 646.219 1171.06 650.933C1171.74 652.449 1174.89 651.802 1176.17 651.617C1180.53 650.989 1184.85 649.99 1189.21 649.362C1201.44 647.587 1213.69 646.071 1225.92 644.351L1234.56 645.276C1233.35 641.319 1232.35 638.638 1232.49 634.441C1232.72 627.619 1234.16 621.166 1236.5 614.714C1239.65 606.024 1243.64 597.464 1246.37 588.682C1248.21 582.765 1249.65 576.405 1250.73 570.304C1251.01 568.547 1251.95 561.392 1248.52 564.887Z" fill="#BFD8AF"/>
<path d="M596.834 613.179C594.664 606.948 593.397 600.145 590.383 594.228C587.195 587.979 582.184 583.153 578.92 576.904C577.077 573.391 576.693 569.952 575.464 566.273C574.293 562.705 571.413 559.858 569.704 556.456C568.187 553.461 567.707 550.133 566.613 546.971C565.903 544.919 566.267 542.441 563.541 542.552C559.643 542.719 557.167 547.711 555.803 550.447C554.325 553.424 553.25 556.844 551.983 559.932C550.408 563.759 548.123 567.456 546.875 571.358C545.992 574.112 545.416 576.96 544.303 579.641C542.901 583.024 542.939 586.167 541.941 589.588C540.943 593.026 539.906 596.428 538.927 599.886C538.255 602.289 537.179 604.545 536.776 607.041C536.603 608.113 536.872 609.5 535.97 610.184C538.754 609.685 541.48 610.258 544.111 611.201C553.845 614.658 562.523 620.612 572.315 623.995C580.706 626.879 589.461 628.377 597.89 631.002C597.947 630.817 597.986 630.632 598.043 630.448L608.603 634.145C603.976 627.526 599.503 620.833 596.834 613.179Z" fill="#BFD8AF"/>
<path d="M544.34 543.532C544.052 541.627 544.187 541.701 541.921 541.701C538.158 541.701 535.527 546.36 532.839 548.69C526.35 554.311 521.665 562.002 514.523 566.975C507.687 571.746 502.004 577.847 495.284 582.709C491.675 585.316 488.468 587.72 485.78 591.233C484.532 592.86 481.787 595.097 481.249 597.075C482.478 597.87 484.052 595.966 484.782 595.337L510.702 603.657C515.463 594.967 521.607 587.054 526.503 578.438C528.462 575 530.516 571.672 532.244 568.103C533.492 565.533 534.145 562.797 535.297 560.246C536.219 558.212 537.179 555.512 538.734 553.904C540.385 552.184 542.267 551.112 543.399 548.893C544.263 547.266 544.609 545.362 544.34 543.532Z" fill="#BFD8AF"/>
<path d="M287.884 444.617C286.175 445.967 284.639 446.984 283.219 448.981C281.183 451.865 279.59 454.786 278.495 458.114C277.343 461.627 274.809 463.901 271.679 465.898C267.091 468.819 264.94 473.737 262.079 477.971C261.388 479.006 260.025 481.336 258.451 480.615C257.683 480.245 256.607 476.288 256.396 475.53C255.647 472.886 255.935 468.209 256.281 465.454C256.761 461.59 258.259 457.948 258.239 453.899C258.22 452.05 258.239 450.201 258.239 448.352C258.239 447.779 258.105 446.725 258.067 445.671C268.031 447.317 277.651 441.77 287.884 444.617Z" fill="#BFD8AF"/>
<path d="M260.218 491.856C259.987 492.799 259.162 494.074 258.758 495.017C257.875 497.014 256.992 498.66 256.32 500.657C256.186 501.045 255.61 503.374 255.187 503.652C254.323 504.243 252.384 503.818 251.386 503.818C246.221 503.818 241.363 502.894 236.141 502.894H227.04C224.525 502.894 221.434 503.467 220.032 500.86C219.091 499.122 219.84 495.147 219.84 493.187C219.84 491.8 219.859 490.414 219.84 489.027C219.84 488.435 219.744 487.714 219.821 487.16C219.955 486.05 220.378 485.865 220.589 484.923C220.877 483.554 220.627 482.223 221.011 480.91C221.395 479.598 221.837 479.136 221.76 477.472C221.645 474.865 221.453 476.214 220.051 474.957C218.726 473.755 218.861 472.979 218.88 471.278C218.938 465.935 219.437 460.85 220.781 455.71C221.798 451.717 222.47 447.538 224.41 443.711C225.293 441.936 226.138 440.254 226.829 438.386C227.539 436.427 227.309 435.058 227.597 433.062C227.616 432.969 227.616 432.858 227.635 432.766C229.613 434.966 230.515 434.929 233.472 435.225C235.661 435.447 237.619 434.8 239.846 435.447C239.904 435.465 239.981 435.484 240.038 435.521C240.154 438.312 240.595 440.661 241.92 443.508C243.744 447.39 243.936 451.366 246.509 454.86C248.141 457.097 248.448 459.889 250.771 461.516C251.904 462.311 253.421 463.032 254.419 464.012C255.782 465.38 256.205 467.007 257.645 468.338C258.586 469.226 259.93 470.224 260.237 471.444C260.506 472.517 260.16 474.033 260.16 475.161V483.943C260.16 486.291 260.755 489.582 260.218 491.856Z" fill="#BFD8AF"/>
<path d="M218.189 437.333C217.382 441.678 216 446.004 215.232 450.312C214.925 452.05 215.193 453.825 214.829 455.526C214.483 457.134 213.6 459.723 212.928 461.498C212.045 463.883 210.624 466.563 209.28 468.708C208.397 470.113 206.822 471.722 206.361 473.238C205.728 475.272 206.918 477.712 206.208 479.783C205.843 480.855 204.979 481.632 204.672 482.76C204.345 483.887 204.672 484.978 204.288 486.069C203.769 487.548 201.811 489.489 200.87 490.858C198.374 494.5 196.55 498.956 194.88 503.005C193.651 506.037 193.92 508.625 193.555 511.731C193.152 515.263 190.195 517.038 187.968 519.571C186.086 521.715 185.337 525.635 182.4 526.726C181.555 527.04 180.384 527.428 179.501 527.65C178.195 527.965 176.87 527.521 175.603 527.817C174.739 528.02 174.662 528.63 173.779 528.834C172.742 529.074 171.552 528.667 170.496 528.87C168.096 529.333 165.581 530.313 163.046 530.867C155.961 532.439 149.165 532.457 141.945 532.476C133.862 532.494 125.51 532.198 117.485 531.348C113.03 530.886 108.365 529.425 103.91 529.758C109.248 527.558 113.971 524.026 117.504 519.626C119.961 516.538 121.536 513.174 125.357 511.694C128.832 510.345 131.865 508.884 134.63 506.61C135.705 505.723 136.531 504.854 137.472 503.855C138.931 502.302 140.717 501.6 142.08 499.954C143.827 497.846 145.478 495.646 147.245 493.52C150.144 490.007 153.773 487.271 156.557 483.647C157.689 482.168 159.014 480.171 160.569 479.043C161.587 478.304 163.142 478.341 164.198 477.953C167.174 476.862 170.592 474.976 173.837 474.181C178.406 473.071 183.072 471.925 187.373 469.984C196.953 465.676 203.097 456.21 209.203 448.352C212.467 444.155 214.061 440.439 216.307 435.539C216.749 434.578 217.843 431.583 219.302 429.327C219.494 432.082 218.477 435.632 218.189 437.333Z" fill="#BFD8AF"/>
<path d="M109.132 475.753C107.846 480.597 103.334 485.367 100.819 489.49C99.1866 492.189 96.9594 496.793 94.1178 498.512C91.5258 500.084 89.3178 501.581 87.3786 504.003C86.1498 505.538 85.0938 507.221 83.5386 508.515C82.1178 509.68 80.3706 510.179 78.8922 511.196C77.529 512.12 77.0298 513.488 75.8778 514.505C74.8218 515.411 73.4586 515.818 72.4218 516.761C70.7514 518.295 68.8506 519.497 67.1034 521.05C66.8346 518.85 69.9258 516.465 71.0394 514.727C72.633 512.231 73.977 509.439 74.8794 506.647C76.2618 502.376 75.8394 497.884 75.8394 493.446C75.8394 490.803 75.3402 487.992 76.665 485.607C76.7418 485.459 76.8186 485.33 76.9338 485.182C80.8506 484.368 84.9594 483.703 88.8954 482.76C91.4874 482.15 95.0394 481.798 97.401 481.04C101.491 479.709 105.119 477.435 109.132 475.753Z" fill="#BFD8AF"/>
<path d="M326.207 526.19C325.67 525.21 324.422 524.304 323.788 523.25C322.943 521.845 321.945 520.625 320.908 519.331C318.162 515.855 315.724 511.991 313.919 507.979C313.42 506.869 312.306 505.261 312.095 504.207C311.558 501.526 312.153 501.766 309.772 499.603C306.508 496.608 303.993 493.761 302.188 489.989C301.209 487.918 299.634 486.236 298.54 484.258C297.657 482.668 297.292 480.856 296.447 479.229C295.602 477.62 294.047 476.086 293.778 474.255L292.818 478.877C293.548 481.318 294.662 483.74 294.758 486.254C294.815 487.752 294.412 489.342 294.873 490.803C298.54 491.246 298.386 492.818 300.46 495.517C302.783 498.494 303.801 501.212 305.068 504.78C305.97 507.294 307.122 509.975 307.218 512.619C307.334 515.651 306.22 518.351 306.258 521.401C306.278 522.659 305.932 524.378 306.22 525.598C306.623 527.336 307.641 527.17 309.138 528.057C310.732 529.019 311.135 530.368 312.249 531.607C313.074 532.532 314.073 532.994 314.783 533.974C316.607 536.488 317.452 539.65 317.874 542.7C318.335 546.047 319.18 549.338 319.583 552.703C319.833 554.792 320.812 556.937 320.62 559.007C321.945 558.065 321.714 556.049 322.079 554.663C322.617 552.721 322.367 551.002 322.636 549.042C323.289 544.475 324.23 539.668 325.67 535.231C326.38 533.068 327.398 528.39 326.207 526.19Z" fill="#BFD8AF"/>
<path d="M506.784 536.248C504.288 538.448 501.523 540.297 499.2 542.626C496.896 544.937 496.32 546.916 495.129 549.837C494.208 552.092 493.459 554.237 492.71 556.53C492.153 558.305 492.134 560.542 491.539 562.15C490.618 564.646 487.219 566.846 485.28 568.603C482.189 571.376 481.901 575.869 479.174 578.753C477.139 578.254 476.141 576.165 474.797 574.741C472.857 572.652 470.88 570.618 468.595 568.862C466.963 567.586 464.793 566.532 463.277 565.201C460.992 563.186 458.918 560.875 457.21 558.305C456.173 556.752 454.195 555.42 452.371 554.219C455.789 553.645 458.899 552.314 462.374 551.371C472.666 548.598 481.574 543.865 491.462 540.241C496.013 538.577 501.389 537.172 506.784 536.248Z" fill="#BFD8AF"/>
<path d="M679.834 513.802C679.22 517.389 679.604 521.42 679.681 525.08C679.758 529.259 676.225 530.923 673.402 533.844C669.37 538.022 666.452 542.848 664.167 548.08C663.284 550.096 662.036 551.741 660.942 553.627C659.617 555.901 658.849 558.545 657.831 560.949C656.91 563.149 656.468 565.349 655.662 567.604C653.876 572.633 655.815 577.866 654.51 582.913C653.838 585.502 652.244 588.682 650.881 590.937C648.231 595.301 647.598 599.109 648.058 604.157C648.634 610.332 648.942 616.156 648.942 622.405C648.942 624.346 650.324 631.206 647.732 632.001C645.486 629.283 643.892 626.195 642.951 622.886C642.337 620.723 641.185 618.744 640.513 616.618C639.937 614.751 638.958 613.771 638.094 612.051C636.999 609.888 636.039 607.725 634.926 605.562C633.428 602.659 630.913 600.422 629.953 597.223C628.57 592.675 626.151 588.589 624.462 584.263C623.098 580.787 622.292 578.291 618.702 576.405C614.67 574.297 612.346 571.968 609.62 568.547C608.199 566.772 606.471 565.219 605.838 563.001C605.262 561.004 604.935 559.137 603.438 557.473C600.289 553.923 595.105 552.074 591.438 549.153C588.308 546.675 584.814 544.475 581.78 541.887C580.647 540.925 580.129 539.945 579.342 538.762C578.305 537.209 576.654 536.691 575.598 535.342C578.401 533.326 583.566 532.79 586.906 531.551C589.518 530.59 592.11 529.573 594.721 528.575C607.566 523.694 620.218 518.665 633.217 514.135C643.22 510.659 652.993 506.555 663.169 503.596C668.334 502.099 673.614 501.045 678.682 499.215C682.196 497.939 686.286 495.776 690.375 494.907C685.057 499.714 680.948 507.035 679.834 513.802Z" fill="#BFD8AF"/>
<path d="M792 597.057C791.309 596.281 790.618 595.504 789.927 594.746C784.57 588.811 778.176 583.265 772.359 577.755C770.477 575.962 768.288 574.815 766.138 573.392C758.247 568.141 755.002 558.915 746.9 553.683C744.231 551.963 741.274 550.355 738.451 548.857C737.472 548.321 736.436 547.988 735.629 547.138C735.092 546.564 734.861 545.474 734.477 544.79C733.402 542.922 731.943 541.24 730.426 539.687C727.162 536.34 723.687 533.493 720.941 529.703C713.779 519.811 707.156 510.77 696.02 504.743C698.343 506 703.373 509.883 704.64 512.083C705.716 513.95 705.255 517.093 705.965 519.183C706.445 520.625 707.367 521.808 707.981 523.176C709.92 527.484 709.498 532.421 711.264 536.821C711.917 538.448 713.184 540.223 713.952 541.905C716.352 547.212 718.733 553.572 723.13 557.399C725.741 559.673 728.583 561.374 731.424 563.426C734.996 566.015 736.685 568.344 738.317 572.467C739.604 575.721 740.564 578.827 742.522 581.786C743.712 583.597 745.805 585.335 746.669 587.332C747.322 588.811 747.303 591.03 747.648 592.601C748.608 596.965 750.183 601.106 751.258 605.396C752.333 609.666 754.407 613.549 755.578 617.765C758.093 626.916 761.242 636.142 765.658 644.758C767.271 647.883 769.364 650.933 771.111 654.002C771.956 655.482 770.976 655.777 772.743 656.498C774.26 657.127 777.216 655.574 778.349 655.112C787.872 651.192 797.818 648.289 807.552 644.906C815.194 642.244 823.7 637.769 831.821 636.66C831.399 635.015 827.463 632.629 825.927 631.502C820.954 627.841 816.615 623.773 812.218 619.447C804.98 612.347 798.644 604.564 792 597.057Z" fill="#BFD8AF"/>
<path d="M718.08 528.778C720.038 532.365 725.184 535.268 728.794 537.172C734.15 540.001 740.007 540.833 745.882 541.905C749.664 542.589 752.947 544.605 756.499 545.936C761.165 547.692 766.099 550.262 770.4 552.777C780.307 558.582 790.214 564.739 799.757 571.118C803.462 573.595 807.264 575.425 811.411 577.052C814.426 578.236 816.71 580.177 819.533 581.527C815.501 581.656 811.296 580.085 807.302 579.641C801.427 578.994 795.686 577.7 790.08 576.146C787.68 575.481 786.394 574.667 784.474 573.207C778.886 568.973 771.61 566.865 765.754 562.982C761.414 560.098 757.344 557.085 752.678 554.663C748.589 552.536 744.538 551.519 740.237 550.04C732.461 547.378 719.578 547.766 720 537.098L718.08 528.778Z" fill="#BFD8AF"/>
<path d="M357.119 527.853C357.099 530.054 359.826 532.66 361.17 534.306C364.683 538.595 368.351 542.811 371.96 547.026C376.914 552.813 381.522 558.951 386.187 564.942C388.607 568.048 391.755 571.524 395.461 573.188C399.666 575.092 404.005 575.295 407.979 577.773C411.378 579.881 414.565 581.914 417.829 584.244C421.189 586.648 423.819 589.606 426.891 592.324C430.271 595.3 434.149 598.462 437.759 601.18C438.93 602.067 440.619 602.603 441.637 603.639C442.904 604.914 442.52 606.098 444.21 604.693C444.498 604.452 445.208 602.252 445.285 602.141C445.861 601.161 446.725 600.2 447.397 599.294C448.299 598.074 451.525 595.06 451.295 593.396C451.199 592.73 450.335 592.065 449.835 591.676C447.32 589.717 444.363 588.108 441.791 586.111C438.776 583.782 436.127 581.119 433.208 578.697C430.079 576.109 426.642 573.872 423.512 571.283C421.208 569.379 419.135 567.327 416.6 565.7C414.027 564.036 411.205 562.816 408.632 561.152C403.391 557.75 399.301 553.867 395.519 549.134C393.733 546.878 391.717 544.955 389.951 542.644C388.703 540.999 387.493 539.372 386.111 537.8C384.632 536.099 382.731 535.545 380.869 534.602C379.794 534.066 378.853 533.234 377.797 532.734C375.858 531.81 373.65 531.662 371.73 530.701C367.698 528.722 363.531 526.837 359.557 524.636C357.906 523.712 356.312 522.658 354.68 521.752C353.586 521.142 352.05 520.661 351.147 519.885C352.242 522.122 354.661 523.934 356.063 526.079C359.058 530.682 361.496 535.452 364.76 539.908L357.119 527.853Z" fill="#BFD8AF"/>
</svg>
